<?xml version="1.0" encoding="utf-8"?>
<!-- Generator: Adobe Illustrator 16.0.0, SVG Export Plug-In . SVG Version: 6.00 Build 0)  -->
<!DOCTYPE svg PUBLIC "-//W3C//DTD SVG 1.1//EN" "http://www.w3.org/Graphics/SVG/1.1/DTD/svg11.dtd">
<svg version="1.1" id="Layer_1" xmlns="http://www.w3.org/2000/svg" xmlns:xlink="http://www.w3.org/1999/xlink" x="0px" y="0px"
	 width="100px" height="100px" viewBox="207.325 150 100 100" enable-background="new 207.325 150 100 100" xml:space="preserve">
<path fill="#FFFFFF" d="M268.082,200c6.486-3.604,10.451-10.811,10.451-18.378c0-11.892-9.73-21.622-21.622-21.622
	s-21.621,9.729-21.621,21.622c0,7.928,4.324,14.775,10.45,18.378c-13.333,4.685-22.703,18.018-22.703,33.514V240h68.54v-6.486
	C292.299,218.018,281.416,204.685,268.082,200z M240.695,181.622c0-9.369,7.567-16.577,16.576-16.577s16.576,7.567,16.576,16.577
	c0,9.37-7.567,16.577-16.576,16.577S240.695,190.63,240.695,181.622z M286.1,235.315h-57.657v-1.802
	c0-14.775,10.451-27.748,24.144-29.91c2.883-0.36,6.126-0.721,10.09,0c13.693,2.162,24.145,15.135,24.145,29.91v1.802H286.1z"/>
</svg>
