<?xml version="1.0" encoding="utf-8"?>
<!-- Generator: Adobe Illustrator 16.0.0, SVG Export Plug-In . SVG Version: 6.00 Build 0)  -->
<!DOCTYPE svg PUBLIC "-//W3C//DTD SVG 1.1//EN" "http://www.w3.org/Graphics/SVG/1.1/DTD/svg11.dtd" [
	<!ENTITY ns_flows "http://ns.adobe.com/Flows/1.0/">
	<!ENTITY ns_extend "http://ns.adobe.com/Extensibility/1.0/">
	<!ENTITY ns_ai "http://ns.adobe.com/AdobeIllustrator/10.0/">
	<!ENTITY ns_graphs "http://ns.adobe.com/Graphs/1.0/">
]>
<svg version="1.1" id="Layer_1" xmlns:x="&ns_extend;" xmlns:i="&ns_ai;" xmlns:graph="&ns_graphs;"
	 xmlns="http://www.w3.org/2000/svg" xmlns:xlink="http://www.w3.org/1999/xlink" xmlns:a="http://ns.adobe.com/AdobeSVGViewerExtensions/3.0/"
	 x="0px" y="0px" width="33px" height="42px" viewBox="0 0 33 42" enable-background="new 0 0 33 42" xml:space="preserve">
<g>
	<polygon fill="#F1543F" points="11.025,9.188 21.875,9.188 31.413,0 20.563,0 	"/>
	<path fill="#F8B64C" d="M23.888,14.087h-15.4V7.35h15.4V14.087L23.888,14.087z M10.237,12.337h11.9V9.1h-11.9V12.337z"/>
	<polygon fill="#FF7058" points="21.875,9.188 11.025,9.188 1.4,0 12.338,0 	"/>
	<circle fill="#FFD15C" cx="16.188" cy="25.813" r="16.188"/>
	<path fill="#F8B64C" d="M16.188,38.063c-6.737,0-12.25-5.513-12.25-12.25c0-6.738,5.513-12.25,12.25-12.25s12.25,5.512,12.25,12.25
		C28.438,32.55,22.925,38.063,16.188,38.063z"/>
	<polygon fill="#FFD15C" points="16.188,14.788 18.726,22.487 26.862,22.487 20.213,27.3 22.75,35 16.188,30.188 9.625,35 
		12.163,27.3 5.513,22.487 13.65,22.487 	"/>
</g>
</svg>
