<?xml version="1.0" encoding="utf-8"?>
<!-- Generator: Adobe Illustrator 16.0.0, SVG Export Plug-In . SVG Version: 6.00 Build 0)  -->
<!DOCTYPE svg PUBLIC "-//W3C//DTD SVG 1.1//EN" "http://www.w3.org/Graphics/SVG/1.1/DTD/svg11.dtd" [
	<!ENTITY ns_flows "http://ns.adobe.com/Flows/1.0/">
	<!ENTITY ns_extend "http://ns.adobe.com/Extensibility/1.0/">
	<!ENTITY ns_ai "http://ns.adobe.com/AdobeIllustrator/10.0/">
	<!ENTITY ns_graphs "http://ns.adobe.com/Graphs/1.0/">
]>
<svg version="1.1" id="Layer_1" xmlns:x="&ns_extend;" xmlns:i="&ns_ai;" xmlns:graph="&ns_graphs;"
	 xmlns="http://www.w3.org/2000/svg" xmlns:xlink="http://www.w3.org/1999/xlink" xmlns:a="http://ns.adobe.com/AdobeSVGViewerExtensions/3.0/"
	 x="0px" y="0px" width="18px" height="18px" viewBox="0 0 18 18" enable-background="new 0 0 18 18" xml:space="preserve">
<g>
	<g transform="translate(-424.000000, -219.000000)">
		<path fill="#2DA1DB" d="M433.1,220.995V221h-5.109c-1.093,0-1.991,0.897-1.991,1.995v10.011c0,1.099,0.895,1.994,1.995,1.994
			h10.011c1.099,0,1.994-0.896,1.994-1.999v-4.023l0,0c0.013-0.542,0.455-0.978,1-0.978s0.987,0.436,1,0.978l0,0v4.023
			c0,2.208-1.792,3.999-3.994,3.999h-10.011c-2.206,0-3.995-1.792-3.995-3.994v-10.011c0-2.206,1.798-3.995,3.991-3.995h5.109v0.005
			c0.505,0.05,0.9,0.477,0.9,0.995S433.605,220.945,433.1,220.995z M435.606,228.107l1.237,1.237l-3.135,3.136
			c-1.111,1.111-3.035,0.748-4.366-0.583c-1.326-1.326-1.695-3.256-0.587-4.363l3.139-3.139l1.237,1.237l-3.139,3.139
			c-0.281,0.281-0.116,1.146,0.607,1.868c0.728,0.728,1.585,0.89,1.872,0.604L435.606,228.107z M438.104,228.085l-1.237-1.237
			l3.136-3.136c0.287-0.287,0.125-1.144-0.604-1.872c-0.723-0.723-1.587-0.888-1.868-0.606l-3.139,3.139l-1.238-1.237l3.139-3.139
			c1.107-1.107,3.037-0.739,4.363,0.587c1.331,1.332,1.694,3.255,0.583,4.367L438.104,228.085z M435.645,224.357
			c0.344-0.344,0.897-0.348,1.242-0.004c0.341,0.342,0.347,0.89-0.005,1.242l-2.526,2.526c-0.344,0.344-0.897,0.348-1.241,0.004
			c-0.342-0.342-0.347-0.89,0.004-1.242L435.645,224.357z"/>
	</g>
</g>
</svg>
