<?xml version="1.0" encoding="utf-8"?>
<!-- Generator: Adobe Illustrator 16.0.0, SVG Export Plug-In . SVG Version: 6.00 Build 0)  -->
<!DOCTYPE svg PUBLIC "-//W3C//DTD SVG 1.1//EN" "http://www.w3.org/Graphics/SVG/1.1/DTD/svg11.dtd" [
	<!ENTITY ns_flows "http://ns.adobe.com/Flows/1.0/">
	<!ENTITY ns_extend "http://ns.adobe.com/Extensibility/1.0/">
	<!ENTITY ns_ai "http://ns.adobe.com/AdobeIllustrator/10.0/">
	<!ENTITY ns_graphs "http://ns.adobe.com/Graphs/1.0/">
]>
<svg version="1.1" id="Layer_1" xmlns:x="&ns_extend;" xmlns:i="&ns_ai;" xmlns:graph="&ns_graphs;"
	 xmlns="http://www.w3.org/2000/svg" xmlns:xlink="http://www.w3.org/1999/xlink" xmlns:a="http://ns.adobe.com/AdobeSVGViewerExtensions/3.0/"
	 x="0px" y="0px" width="50px" height="50px" viewBox="0 0 50 50" enable-background="new 0 0 50 50" xml:space="preserve">
<g>
	<polygon fill="#A4D66D" points="46.401,3.716 46.401,46.095 3.591,46.095 3.591,3.716 	"/>
	<path fill="#193651" d="M16.164,0H0v50h50V0H33.828 M33.819,1.569h14.604l0.008,46.871l0,0H1.561V1.569h14.604"/>
	<g>
		<ellipse fill="#FFFFFF" cx="18.414" cy="14.534" rx="4.216" ry="4.216"/>
		<path fill="#FFFFFF" d="M26.389,29.534c-0.237-4.142-3.669-7.345-7.893-7.345s-7.582,3.284-7.811,7.345H26.389z"/>
	</g>
	<g>
		<path fill="#193651" d="M27.246,30.311H9.828l0.082-0.857c0.303-4.535,4.053-8.048,8.587-8.048c4.607,0,8.439,3.513,8.668,8.048
			L27.246,30.311z M11.543,28.75H25.53c-0.621-3.284-3.513-5.784-7.034-5.784C15.057,22.966,12.164,25.466,11.543,28.75z"/>
		<rect x="8.807" y="37.345" fill="#193651" width="32.879" height="1.561"/>
		<rect x="8.807" y="33.047" fill="#193651" width="32.879" height="1.561"/>
		<rect x="8.807" y="41.643" fill="#193651" width="1.56" height="1.561"/>
		<rect x="12.401" y="41.643" fill="#193651" width="1.561" height="1.561"/>
		<rect x="15.914" y="41.643" fill="#193651" width="1.561" height="1.561"/>
		<rect x="19.509" y="41.643" fill="#193651" width="1.561" height="1.561"/>
		<rect x="23.03" y="41.643" fill="#193651" width="1.561" height="1.561"/>
		<rect x="26.625" y="41.643" fill="#193651" width="1.561" height="1.561"/>
		<rect x="30.238" y="41.643" fill="#193651" width="1.561" height="1.561"/>
		<rect x="33.667" y="41.643" fill="#193651" width="1.561" height="1.561"/>
		<rect x="37.063" y="41.643" fill="#193651" width="1.561" height="1.561"/>
		<rect x="39.929" y="41.643" fill="#193651" width="1.561" height="1.561"/>
		<path fill="#193651" d="M18.537,9.534c-2.737,0-4.959,2.223-4.959,4.959c0,2.737,2.222,4.959,4.959,4.959
			c2.736,0,4.959-2.222,4.959-4.959C23.496,11.757,21.273,9.534,18.537,9.534z M18.537,17.818c-1.83,0-3.325-1.495-3.325-3.325
			s1.495-3.325,3.325-3.325s3.325,1.495,3.325,3.325S20.367,17.818,18.537,17.818z"/>
	</g>
	<polygon fill="#FF8603" points="46.401,24.854 38.973,30.632 31.18,24.854 31.18,3.716 46.401,3.716 	"/>
	<g>
		<g>
			<polygon fill="#FFFFFF" points="37.256,13.996 32.84,13.243 36.162,15.619 			"/>
			<polygon fill="#FFFFFF" points="40.253,13.996 44.668,13.243 41.347,15.619 			"/>
		</g>
		<path fill="#FFFFFF" d="M44.664,13.243c0,0-3.107,1.83-3.321,1.615c-0.238-0.238-2.313-4.041-2.612-4.042
			c-0.299,0.001-2.33,3.804-2.568,4.042c-0.214,0.214-3.322-1.615-3.322-1.615c-0.416,0.229,2.195,6.713,2.195,6.713
			c0,0.52,0.422,0.939,0.94,0.939h2.755h2.799c0.52,0,0.939-0.42,0.939-0.939C42.469,19.956,45.082,13.471,44.664,13.243z"/>
		<g>
			<path fill="#FFFFFF" d="M38.73,10.816c-0.299,0.001-2.33,3.804-2.568,4.042c-0.213,0.214-3.322-1.615-3.322-1.615
				c-0.416,0.229,2.195,6.713,2.195,6.713c0,0.52,0.422,0.939,0.94,0.939h2.755V10.816L38.73,10.816z"/>
			<circle fill="#FFFFFF" cx="38.707" cy="10.816" r="0.902"/>
		</g>
		<path fill="#FFFFFF" d="M42.481,19.956c0,0.52-0.421,0.939-0.939,0.939h-5.566c-0.519,0-0.94-0.42-0.94-0.939
			c0,0,2.166-0.129,3.719-0.129C40.305,19.827,42.481,19.956,42.481,19.956z"/>
		<path fill="#FFFFFF" d="M38.73,20.896h-2.755c-0.519,0-0.94-0.421-0.94-0.94c0,0,2.166-0.128,3.719-0.128L38.73,20.896z"/>
		<g opacity="0.4">
			<path fill="#FFFFFF" d="M37.977,10.995c-0.158-0.159,0.016-0.598,0.174-0.756c0.158-0.159,0.543-0.31,0.701-0.15
				C39.01,10.247,38.135,11.154,37.977,10.995z"/>
		</g>
		<g>
			<circle fill="#FFFFFF" cx="44.681" cy="13.288" r="0.593"/>
			<path fill="#FFFFFF" d="M44.199,13.406c-0.104-0.104,0.01-0.393,0.115-0.497c0.104-0.104,0.356-0.203,0.461-0.099
				C44.879,12.915,44.305,13.511,44.199,13.406z"/>
			<circle fill="#FFFFFF" cx="32.83" cy="13.288" r="0.593"/>
		</g>
		<g opacity="0.4">
			<path fill="#FFFFFF" d="M32.349,13.406c-0.104-0.104,0.011-0.393,0.114-0.497c0.105-0.104,0.357-0.203,0.461-0.099
				C33.028,12.915,32.453,13.511,32.349,13.406z"/>
		</g>
	</g>
</g>
</svg>
