<?xml version="1.0" encoding="utf-8"?>
<!-- Generator: Adobe Illustrator 16.0.0, SVG Export Plug-In . SVG Version: 6.00 Build 0)  -->
<!DOCTYPE svg PUBLIC "-//W3C//DTD SVG 1.1//EN" "http://www.w3.org/Graphics/SVG/1.1/DTD/svg11.dtd">
<svg version="1.1" id="Layer_1" xmlns="http://www.w3.org/2000/svg" xmlns:xlink="http://www.w3.org/1999/xlink" x="0px" y="0px"
	 width="360px" height="312px" viewBox="70 44 360 312" enable-background="new 70 44 360 312" xml:space="preserve">
<g>
	<g>
		<path fill="#FFFFFF" d="M250.012,356c-2.636,0-5.136-1.188-6.796-3.229L71.96,142.836c-2.58-3.16-2.616-7.672-0.096-10.88
			l66.588-84.612c1.656-2.108,4.2-3.344,6.892-3.344h209.312c2.691,0,5.235,1.236,6.892,3.344l66.584,84.612
			c2.524,3.208,2.484,7.72-0.092,10.88L256.809,352.771C255.145,354.813,252.648,356,250.012,356z M89.96,137.244l160.052,196.208
			L410.04,137.244L350.396,61.44H149.604L89.96,137.244z"/>
	</g>
	<g>
		<rect x="78.756" y="128.616" fill="#FFFFFF" width="342.484" height="17.436"/>
	</g>
	<g>
		<path fill="#FFFFFF" d="M250.012,356c-3.708,0-7.02-2.332-8.252-5.813L137.088,55.628l16.512-5.82l96.412,271.324l96.396-271.32
			l16.512,5.816l-104.648,294.56C257.032,353.668,253.721,356,250.012,356z"/>
	</g>
	<g>
		<path fill="#FFFFFF" d="M318.016,143.088L250,65.936l-68.008,77.152l-13.164-11.508l74.592-84.612
			C245.084,45.084,247.48,44,250,44c2.52,0,4.916,1.08,6.58,2.968l74.596,84.612L318.016,143.088z"/>
	</g>
</g>
</svg>
