<?xml version="1.0" encoding="utf-8"?>
<!-- Generator: Adobe Illustrator 16.0.0, SVG Export Plug-In . SVG Version: 6.00 Build 0)  -->
<!DOCTYPE svg PUBLIC "-//W3C//DTD SVG 1.1//EN" "http://www.w3.org/Graphics/SVG/1.1/DTD/svg11.dtd" [
	<!ENTITY ns_flows "http://ns.adobe.com/Flows/1.0/">
	<!ENTITY ns_extend "http://ns.adobe.com/Extensibility/1.0/">
	<!ENTITY ns_ai "http://ns.adobe.com/AdobeIllustrator/10.0/">
	<!ENTITY ns_graphs "http://ns.adobe.com/Graphs/1.0/">
]>
<svg version="1.1" id="Layer_1" xmlns:x="&ns_extend;" xmlns:i="&ns_ai;" xmlns:graph="&ns_graphs;"
	 xmlns="http://www.w3.org/2000/svg" xmlns:xlink="http://www.w3.org/1999/xlink" xmlns:a="http://ns.adobe.com/AdobeSVGViewerExtensions/3.0/"
	 x="0px" y="0px" width="70px" height="37px" viewBox="0 0 70 37" enable-background="new 0 0 70 37" xml:space="preserve">
<path fill="#C0504D" d="M14.544,37h11.281v-3.67c0-0.748-0.34-1.494-0.951-1.972c-3.33-2.719-6.864-4.484-7.544-4.893
	c-0.068-0.068-0.135-0.136-0.135-0.203v-5.166c0.611-0.407,1.087-1.155,1.087-1.97v-5.301c0-2.651-2.176-4.826-4.825-4.826h-0.544
	h-0.544c-2.65,0-4.825,2.174-4.825,4.826v5.301c0,0.814,0.408,1.563,1.087,1.97v5.166c0,0.067-0.069,0.203-0.137,0.203
	c-0.747,0.34-4.281,2.174-7.543,4.893C0.34,31.836,0,32.582,0,33.33V37h11.214l1.02-5.098c-2.243-3.124,0.135-3.263,0.611-3.263l0,0
	l0,0c0.408,0,2.854,0.139,0.612,3.263L14.544,37z"/>
<path fill="#00B315" d="M58.719,37H70v-3.67c0-0.748-0.34-1.494-0.95-1.972c-3.33-2.719-6.865-4.484-7.545-4.893
	c-0.067-0.068-0.135-0.136-0.135-0.203v-5.166c0.611-0.407,1.087-1.155,1.087-1.97v-5.301c0-2.651-2.176-4.826-4.825-4.826h-0.544
	h-0.545c-2.649,0-4.824,2.174-4.824,4.826v5.301c0,0.814,0.408,1.563,1.088,1.97v5.166c0,0.067-0.069,0.203-0.137,0.203
	c-0.748,0.34-4.281,2.174-7.543,4.893c-0.611,0.478-0.952,1.224-0.952,1.972V37h11.214l1.02-5.098
	c-2.243-3.124,0.135-3.263,0.611-3.263l0,0l0,0c0.407,0,2.854,0.139,0.612,3.263L58.719,37z"/>
<path fill="#2DA1DB" d="M37.155,37h14.908v-4.85c0-0.988-0.449-1.975-1.257-2.605c-4.4-3.592-9.07-5.926-9.969-6.465
	c-0.09-0.09-0.179-0.18-0.179-0.27v-6.826c0.807-0.539,1.437-1.526,1.437-2.604V6.377C42.096,2.874,39.221,0,35.72,0H35h-0.719
	c-3.502,0-6.376,2.874-6.376,6.377v7.004c0,1.077,0.539,2.065,1.438,2.604v6.826c0,0.09-0.091,0.27-0.181,0.27
	c-0.987,0.449-5.657,2.873-9.968,6.465c-0.808,0.631-1.258,1.617-1.258,2.605V37h14.818l1.348-6.736
	c-2.964-4.129,0.179-4.311,0.808-4.311l0,0l0,0c0.539,0,3.771,0.182,0.81,4.311L37.155,37z"/>
</svg>
