<?xml version="1.0" encoding="utf-8"?>
<!-- Generator: Adobe Illustrator 16.0.0, SVG Export Plug-In . SVG Version: 6.00 Build 0)  -->
<!DOCTYPE svg PUBLIC "-//W3C//DTD SVG 1.1//EN" "http://www.w3.org/Graphics/SVG/1.1/DTD/svg11.dtd" [
	<!ENTITY ns_flows "http://ns.adobe.com/Flows/1.0/">
	<!ENTITY ns_extend "http://ns.adobe.com/Extensibility/1.0/">
	<!ENTITY ns_ai "http://ns.adobe.com/AdobeIllustrator/10.0/">
	<!ENTITY ns_graphs "http://ns.adobe.com/Graphs/1.0/">
]>
<svg version="1.1" xmlns:x="&ns_extend;" xmlns:i="&ns_ai;" xmlns:graph="&ns_graphs;"
	 xmlns="http://www.w3.org/2000/svg" xmlns:xlink="http://www.w3.org/1999/xlink" xmlns:a="http://ns.adobe.com/AdobeSVGViewerExtensions/3.0/"
	 x="0px" y="0px" width="50px" height="50px" viewBox="0 0 50 50" enable-background="new 0 0 50 50" xml:space="preserve">
<metadata><?xpacket begin="﻿" id="W5M0MpCehiHzreSzNTczkc9d"?>
<x:xmpmeta xmlns:x="adobe:ns:meta/" x:xmptk="Adobe XMP Core 5.3-c011 66.145661, 2012/02/06-14:56:27        ">
   <rdf:RDF xmlns:rdf="http://www.w3.org/1999/02/22-rdf-syntax-ns#">
      <rdf:Description rdf:about=""
            xmlns:xmpMM="http://ns.adobe.com/xap/1.0/mm/"
            xmlns:stRef="http://ns.adobe.com/xap/1.0/sType/ResourceRef#"
            xmlns:stEvt="http://ns.adobe.com/xap/1.0/sType/ResourceEvent#">
         <xmpMM:RenditionClass>proof:pdf</xmpMM:RenditionClass>
         <xmpMM:DocumentID>xmp.did:EC200ABD486CE711A4BAA3D71CA81245</xmpMM:DocumentID>
         <xmpMM:InstanceID>xmp.iid:EC200ABD486CE711A4BAA3D71CA81245</xmpMM:InstanceID>
         <xmpMM:OriginalDocumentID>uuid:6582382f-8001-4be6-b5bc-a45f8f5520ae</xmpMM:OriginalDocumentID>
         <xmpMM:DerivedFrom rdf:parseType="Resource">
            <stRef:instanceID>uuid:8e4f201b-4765-4b7b-9f35-b411556a018a</stRef:instanceID>
            <stRef:documentID>uuid:6582382f-8001-4be6-b5bc-a45f8f5520ae</stRef:documentID>
            <stRef:originalDocumentID>uuid:6582382f-8001-4be6-b5bc-a45f8f5520ae</stRef:originalDocumentID>
            <stRef:renditionClass>proof:pdf</stRef:renditionClass>
         </xmpMM:DerivedFrom>
         <xmpMM:History>
            <rdf:Seq>
               <rdf:li rdf:parseType="Resource">
                  <stEvt:action>saved</stEvt:action>
                  <stEvt:instanceID>xmp.iid:EC200ABD486CE711A4BAA3D71CA81245</stEvt:instanceID>
                  <stEvt:when>2017-07-19T11:38:52+05:30</stEvt:when>
                  <stEvt:softwareAgent>Adobe Illustrator CS6 (Windows)</stEvt:softwareAgent>
                  <stEvt:changed>/</stEvt:changed>
               </rdf:li>
            </rdf:Seq>
         </xmpMM:History>
      </rdf:Description>
      <rdf:Description rdf:about=""
            xmlns:xmp="http://ns.adobe.com/xap/1.0/"
            xmlns:xmpGImg="http://ns.adobe.com/xap/1.0/g/img/">
         <xmp:CreateDate>2017-07-19T11:38:52+05:30</xmp:CreateDate>
         <xmp:CreatorTool>Adobe Illustrator CS6 (Windows)</xmp:CreatorTool>
         <xmp:ModifyDate>2017-07-19T11:38:52+05:30</xmp:ModifyDate>
         <xmp:MetadataDate>2017-07-19T11:38:52+05:30</xmp:MetadataDate>
         <xmp:Thumbnails>
            <rdf:Alt>
               <rdf:li rdf:parseType="Resource">
                  <xmpGImg:width>256</xmpGImg:width>
                  <xmpGImg:height>244</xmpGImg:height>
                  <xmpGImg:format>JPEG</xmpGImg:format>
                  <xmpGImg:image>/9j/4AAQSkZJRgABAgEASABIAAD/7QAsUGhvdG9zaG9wIDMuMAA4QklNA+0AAAAAABAASAAAAAEA&#xA;AQBIAAAAAQAB/+4ADkFkb2JlAGTAAAAAAf/bAIQABgQEBAUEBgUFBgkGBQYJCwgGBggLDAoKCwoK&#xA;DBAMDAwMDAwQDA4PEA8ODBMTFBQTExwbGxscHx8fHx8fHx8fHwEHBwcNDA0YEBAYGhURFRofHx8f&#xA;Hx8fHx8fHx8fHx8fHx8fHx8fHx8fHx8fHx8fHx8fHx8fHx8fHx8fHx8fHx8f/8AAEQgA9AEAAwER&#xA;AAIRAQMRAf/EAaIAAAAHAQEBAQEAAAAAAAAAAAQFAwIGAQAHCAkKCwEAAgIDAQEBAQEAAAAAAAAA&#xA;AQACAwQFBgcICQoLEAACAQMDAgQCBgcDBAIGAnMBAgMRBAAFIRIxQVEGE2EicYEUMpGhBxWxQiPB&#xA;UtHhMxZi8CRygvElQzRTkqKyY3PCNUQnk6OzNhdUZHTD0uIIJoMJChgZhJRFRqS0VtNVKBry4/PE&#xA;1OT0ZXWFlaW1xdXl9WZ2hpamtsbW5vY3R1dnd4eXp7fH1+f3OEhYaHiImKi4yNjo+Ck5SVlpeYmZ&#xA;qbnJ2en5KjpKWmp6ipqqusra6voRAAICAQIDBQUEBQYECAMDbQEAAhEDBCESMUEFURNhIgZxgZEy&#xA;obHwFMHR4SNCFVJicvEzJDRDghaSUyWiY7LCB3PSNeJEgxdUkwgJChgZJjZFGidkdFU38qOzwygp&#xA;0+PzhJSktMTU5PRldYWVpbXF1eX1RlZmdoaWprbG1ub2R1dnd4eXp7fH1+f3OEhYaHiImKi4yNjo&#xA;+DlJWWl5iZmpucnZ6fkqOkpaanqKmqq6ytrq+v/aAAwDAQACEQMRAD8A9U4q7FXYq7FXYq7FXYq7&#xA;FXYq7FVO6ura0tpbq6lS3toEaSeeVgkaIoqzOzUCgDck4q+aPzP/AOcx7Cxnm0zyFaJqEqEo2s3Y&#xA;YW9R19GEcXk9mYgexGKvnzzF+df5reYZGbUvM98Y3qDb20ptYaHsYrf0kP0jFWH3N3dXUnqXMzzy&#xA;fzyMXbc16sTiqjirsVdirsVXxyyROJInZJF+y6kgj5EYqy7y1+cH5neWpUfSPMl9FHGai2lla4t/&#xA;+RM3qR/8Lir6N/Kz/nMPTtSnh0vz7bR6ZcSEJHrFsG+qk9B68bFmir/MCV9lGKvpOCeC4gjngkWW&#xA;CVQ8UqEMjowqrKw2II3BGKr8VdirsVdirsVdirsVdirsVdirsVdirsVdirsVdirsVdirsVcSFBJN&#xA;ANyT0AxV8Pf85Ifn1d+dNVn8taDcGPyjYycXdDT69NGf7xz3iVh+7Xv9o704qvDMVdiqrBa3NwSI&#xA;InlK7kIpYgfRiqq2l6mqlmtJlVRVmMbgADudsVQuKuxV2KuxV2KuxV71/wA42/n/AHXlHUrfyp5i&#xA;uOflS8k4W88p/wB4JZDswY9IWY/GP2ftD9qqr7aBBFRuD0OKuxV2KuxV2KuxV2KuxV2KuxV2KuxV&#xA;2KuxV2KuxV2KuxV2KvFv+crfzDl8q/lw2mWUvpap5kdrKNh9pbZVBunH+xZY/wDZ4q+FMVTTyx5a&#xA;1nzPr1noWi25utSvpPTgiGw8WZidlVVBZiegxV9s/ld/zi75C8pWsN1rltF5i1+gaWe6QPaxt/LD&#xA;btVKD+ZwW7jj0xV7Hb21vbQrBbRJBCgokUahFA8AooBiqpirsVdirsVU7i2t7mFoLmJJ4XFHikUO&#xA;pHgVNQcVeN/mh/zi55B82WktzodtF5c14CsU9ogS1kYdFmt0ogB/mQBu55dMVfE/mby3rPlnXr3Q&#xA;tZtza6lYSGK4iO+/VWU/tKykMpHUGuKpXir7v/5xX/MSbzb+XC2F9KZdW8uutlO7El3tyvK2kYn/&#xA;ACQU/wBhXFXsuKuxV2KuxV2KuxV2KuxV2KuxV2KuxV2KuxV2KuxV2KuxV8U/85m65JefmbZaWG/c&#xA;aVp0YCVqBLcO8jt9KemPoxV4Dir66/5ws8jWsOiat50uIw15dzHTrF26pBEFeZl/4yOwB/1MVfTW&#xA;KuxV2KuxV2KuxV2KuxV8x/8AOanke0k0bSfOlvEFvbecabfuvV4ZVaSFm/4xuhUf6/3KvkfFX0B/&#xA;zhhrstn+ZWoaSW/0fVNOclPGa2kR0P0I0n34q+1MVdirsVdirsVdirsVdirsVdirsVdirsVdirsV&#xA;dirsVdir4b/5y/0LUbH82pdTniYWWrWlvJZz0PBjDGIZE5dOSlKkeBHjirw/FX6Df841+X9Q0P8A&#xA;JvQLbUIjDc3CzXhiYUZUuZnki5e5jZT9NMVenYq7FXYq7FXYq7FXYq7FXmX/ADkl5e1DXfyb1+10&#xA;+MzXUCw3iwqOTMltMkkvGm9RGrH36Yq/PjFXuX/OH/l/Ub/8101aGM/UdHtJ3u5iDxDToYY0r/Mx&#xA;YkDwU4q+4sVdirsVdirsVdirsVdirsVdirsVdirsVdirsVdirsVdiqT+avJ/ljzZpZ0vzFp0OpWJ&#xA;bmsUwNUehHON1IdGoSOSkHFWF6B/zjd+TWh6kmo2nl9JbmJg8P1uae5jQg1BEcruhPuwOKvTMVdi&#xA;rsVdirsVdirsVdirsVdiryvzH/zjJ+T2vao+pT6Q1ncTMXnWymeCJ2PUmJTwX/YAYqzryl5M8r+U&#xA;dJXSfLmnRadYqeZjjqWdyKF5JGLPI1BTkxJxVOsVdirsVdirsVdirsVdirsVdirsVSfzN5w8reV7&#xA;L675h1S20y2NeDXEiozkdRGn2nPsoJxV5Drf/OZH5U2ErRafDqWr0JpNBAsURp3rcPFJ/wAJiqQ/&#xA;9DveVv8AqWr7/kdDirv+h3vK3/UtX3/I6HFXf9DveVv+pavv+R0OKu/6He8rf9S1ff8AI6HFXf8A&#xA;Q73lb/qWr7/kdDirv+h3vK3/AFLV9/yOhxV3/Q73lb/qWr7/AJHQ4q7/AKHe8rf9S1ff8jocVd/0&#xA;O95W/wCpavv+R0OKu/6He8rf9S1ff8jocVd/0O95W/6lq+/5HQ4q7/od7yt/1LV9/wAjocVd/wBD&#xA;veVv+pavv+R0OKu/6He8rf8AUtX3/I6HFXf9DveVv+pavv8AkdDirv8Aod7yt/1LV9/yOhxV3/Q7&#xA;3lb/AKlq+/5HQ4q7/od7yt/1LV9/yOhxV3/Q73lb/qWr7/kdDirv+h3vK3/UtX3/ACOhxV3/AEO9&#xA;5W/6lq+/5HQ4q7/od7yt/wBS1ff8jocVd/0O95W/6lq+/wCR0OKqMH/OcOgNy+seVbuPpx9O6jev&#xA;jWqJTFWQ6J/zmV+Vl9IsWo22paSTTlNLCk0K194Hkk/5J4q9h8s+cPK/mix+veXtUt9TttubW8gZ&#xA;kJ7SJ9tD7MAcVTjFXYq7FXgX5+f85MWvk2Wby15U9O98zKON3dtR4LIn9nj0kmH8vRf2q/ZxV8c6&#xA;/wCYtd8w6lLqet382o38xq9xcOXala8RXZVHZRsO2KpdirsVdirsVdirsVdirsVdirsVdirsVdir&#xA;sVdirsVdirsVdirsVdirsVdirsVdirsVTLy/5k17y7qkWqaFfzadqEP2LiByjU7q3ZlPdW2PfFX2&#xA;P+Qv/OTNn5zkg8t+avTsfM7Dja3SUS3vSOwBP7uY/wAvRv2afZxV73iryP8A5yQ/N5/y/wDJ4t9L&#xA;lC+ZdZ5w6cdiYIwP3tzT/IqAn+Ue4BxV8EySSSyNJIxeRyWd2JLFiakknqTiq3FXrPkb/nGL81fN&#xA;trFfrZxaPp0wDRXOpu0JdevJYUWSXcdCVAPjirO1/wCcIfNnEcvMtgGp8QEUxAPsdsVb/wChIfNX&#xA;/Uy2P/ImbFXf9CQ+av8AqZbH/kTNirv+hIfNX/Uy2P8AyJmxV3/QkPmr/qZbH/kTNirv+hIfNX/U&#xA;y2P/ACJmxV3/AEJD5q/6mWx/5EzYq7/oSHzV/wBTLY/8iZsVd/0JD5q/6mWx/wCRM2Ku/wChIfNX&#xA;/Uy2P/ImbFXf9CQ+av8AqZbH/kTNirv+hIfNX/Uy2P8AyJmxV3/QkPmr/qZbH/kTNirv+hIfNX/U&#xA;y2P/ACJmxV3/AEJD5q/6mWx/5EzYq7/oSHzV/wBTLY/8iZsVd/0JD5q/6mWx/wCRM2Ku/wChIfNX&#xA;/Uy2P/ImbFXf9CQ+av8AqZbH/kTNirv+hIfNX/Uy2P8AyJmxV3/QkPmr/qZbH/kTNirv+hIfNX/U&#xA;y2P/ACJmxV3/AEJD5q/6mWx/5EzYq0//ADhD5sCMU8yWBeh4gxTAE9qkVp92KsE88f8AOMf5reU7&#xA;aW9axj1jToatJc6Y5mKr1q0LLHN8yEIHjirybFV0ckkUiyRsUkQhkdSQwYGoII6EYq+9f+cb/wA3&#xA;2/MDygbbU5A3mXReEOok0BnjYH0rkDxfiQ9P2h2BGKvlX/nIzznL5q/NnWpg/Ky0uQ6XYr2EdqxV&#xA;yPEPNzevvirzLFX1Z/zih+R+nXFhH+YHmO1W5eRyPL9nMoZFEbFWumU7FuYIjr0py7qQq+qMVdir&#xA;sVdirsVdirsVdirsVdirsVdirsVdirsVdirsVdirsVdirsVdirsVdirsVdir5X/5yw/JDT4LGX8w&#xA;fLlstu6OP8QWkK8UcSNxF2qjYNzIElBvXl/MSq+U8Venf844+cZfK/5t6LJz42eqyDSr1a0BS7YJ&#xA;GT/qzcG+jFXm95dS3d5PdymstxI8sh/ynYsevucVUcVfqJ5e0a30TQNN0a2FLfTbWG0ip/LBGIx/&#xA;xHFUwxV2KuxV2KuxV2KuxV2KuxV2KuxV2KuxV2KuxV2KuxV2KuxV2KuxV2KuxV2KuxV2KoDzBo9v&#xA;rWg6jo9yAbfUbWa0lB3+GaMof+JYq/LrFVazupbS7guoTSa3kWWM+DIwYdKdxiqjirsVfqpirsVd&#xA;irsVdirsVdirsVdirsVdirsVdirsVdirsVdirsVdirsVdirsVdirsVdirsVdirsVflXirsVdirsV&#xA;fqpirsVdirsVdirsVdirsVdirsVdirsVdirsVdirsVdirsVdirsVdirsVdirsVdirsVdirsVflXi&#xA;rsVdirsVfqpirsVdirsVdirsVdirsVdirsVdirsVdirsVdirsVdirsVdirsVdirsVdirsVdirsVd&#xA;irsVflXirsVdirsVfqpirsVdirsVdirsVdirsVdirsVdirsVdirsVdirsVdirsVdirsVdirsVdir&#xA;sVdirsVdirsVflXirsVdirsVfqpirsVdirsVdirsVdirsVdirsVdirsVdirsVdirsVdirsVdirsV&#xA;dirsVdirsVdirsVdirsVflXirsVdirsVfqpirsVdirsVdirsVdirsVdirsVdirsVdirsVdirsVdi&#xA;rsVdirsVdirsVdirsVdirsVdirsVflXirsVdirsVfqpirsVdirsVdirsVdirsVdirsVdirsVdirs&#xA;VdirsVdirsVdirsVdirsVdirsVdirsVdirsVflXirsVdirsVfqpirsVdirsVdirsVdirsVdirsVd&#xA;irsVdirsVdirsVdirsVdirsVdirsVdirsVdirsVdirsVflXirsVdirsVfqpirsVdirsVdirsVdir&#xA;sVdirsVdirsVdirsVdirsVdirsVdirsVdirsVdirsVdirsVdirsVflXirsVdirsVfqpirsVdirsV&#xA;dirsVdirsVdirsVdirsVdirsVdirsVdirsVdirsVdirsVdirsVdirsVdirsVflXirsVdirsVfqpi&#xA;rsVdirsVdirsVdirsVdirsVdirsVdirsVdirsVdirsVdirsVdirsVdirsVdirsVdirsVflXirsVd&#xA;irsVfqpirsVdirsVdirsVdirsVdirsVdirsVdirsVdirsVdirsVdirsVdirsVdirsVdirsVdirsV&#xA;flXirsVdirsVfqpirsVdirsVdirsVdirsVdirsVdirsVdirsVdirsVdirsVdirsVdirsVdirsVdi&#xA;rsVdirsVflXirsVdirsVfqpirsVdirsVdirsVdirsVdirsVdirsVdirsVdirsVdirsVdirsVdirs&#xA;VdirsVdirsVdirsVflXirsVdirsVfqpirsVdirsVdirsVdirsVdirsVdirsVdirsVdirsVdirsVd&#xA;irsVdirsVdirsVdirsVdirsVflXirsVV720ls7ye0m2lt5HikH+UjFT+IxVQxV+ougaxa61oWnax&#xA;amttqNtDdwnr8EyB1/BsVR+KuxV2KuxV2KuxV2KuxV2KuxV2KuxV2KuxV2KuxV2KuxV2KuxV2Kux&#xA;V2KuxV2KuxVAa/rFrouhajrF0aW2nW013MenwQoXb8FxV+XWKq1nay3d5BaRCstxIkUY/wAp2Cjp&#xA;7nFXpH/OR/k6Xyv+betRiPhZ6rIdUsiNgUuiWkp/qzc1+jFXmOKvq7/nFD88NPisIvy+8x3Qgljc&#xA;/wCH7uVgEdZDU2jMejBjWOv2q8eoUFV9TYq7FXYq7FXYq7FXYq7FXYq7FXYq7FXYq7FXYq7FXYq7&#xA;FXYq7FXYq7FXYq7FXYq7FXyx/wA5Yfnfp81hL+X3l25W4kkdT5gu4mqiCNuQtFYdW5gGSh2px7sA&#xA;q+UsVelf846+UJfM/wCbmhQcC1rpsw1O8bqFjtCJF5ezS8E+nFX1Z/zkn+UT+fvJwutLiD+ZdE5z&#xA;6eo+1PEwHrW9fFgoZP8AKFNuRxV8FyRyRSNHIpSRCVdGBDBgaEEHoRiq3FXrXkb/AJye/NXynax2&#xA;P1yLWtPiHGK31RWmZFG1FmVo5dh0DMQPDFWdD/nN7zXQV8tWBPciaYCuKt/9Dveav+pasf8AkdNi&#xA;rv8Aod7zV/1LVj/yOmxV3/Q73mr/AKlqx/5HTYq7/od7zV/1LVj/AMjpsVd/0O95q/6lqx/5HTYq&#xA;7/od7zV/1LVj/wAjpsVd/wBDveav+pasf+R02Ku/6He81f8AUtWP/I6bFXf9Dveav+pasf8AkdNi&#xA;rv8Aod7zV/1LVj/yOmxV3/Q73mr/AKlqx/5HTYq7/od7zV/1LVj/AMjpsVd/0O95q/6lqx/5HTYq&#xA;7/od7zV/1LVj/wAjpsVd/wBDveav+pasf+R02Ku/6He81f8AUtWP/I6bFXf9Dveav+pasf8AkdNi&#xA;rv8Aod7zV/1LVj/yOmxV3/Q73mr/AKlqx/5HTYq7/od7zV/1LVj/AMjpsVd/0O95q/6lqx/5HTYq&#xA;7/od7zV/1LVj/wAjpsVcf+c3vNVNvLVjXt++mxVgnnj/AJye/NbzZayWJvYtG0+UFZbfS1aFnU7U&#xA;eZmkm3GxCsAfDFXkuKro45JZFjjUvI5CoiglixNAAB1JxV94f841fk9J5B8qPf6tHw8y62EkvYz1&#xA;t4VqYrf/AFhy5Sf5W37NcVexYq+fPz8/5xjt/Nk1x5n8oCO18ySVkvrBiEgvW6l1PSOZu5PwsetD&#xA;Viq+Pdb0HWtC1KXTNZsptPv4DSW2uEaNx70PUHsRse2KoDFXYq7FXYq7FXYq7FXYq7FXYq7FXYq7&#xA;FXYq7FXYq7FXYq7FXYq7FXYq7FXYq7FXYqmOgeXdd8w6lFpmiWE2o38xolvboXalacjTZVHdjsO+&#xA;Kvsf8hP+cZrTyZJB5l81ene+ZwOVrarR4LInuD/uyYfzfZX9mv2sVe+Yq7FXYqw78y/+VVfopf8A&#xA;lYX6L+pUb0P0l6fqduX1ev73l/xj3xV8n+dP+hRPWl/Q3+IeW/p/ovj6FaGlf0l+841+nFXnt3/y&#xA;qD1z9T/xB6G3H1vqXOtN68dsVUf+QWf9rz/p0xV3/ILP+15/06Yq7/kFn/a8/wCnTFXf8gs/7Xn/&#xA;AE6Yq7/kFn/a8/6dMVd/yCz/ALXn/Tpirv8AkFn/AGvP+nTFXf8AILP+15/06Yq7/kFn/a8/6dMV&#xA;d/yCz/tef9OmKu/5BZ/2vP8Ap0xV3/ILP+15/wBOmKu/5BZ/2vP+nTFXf8gs/wC15/06Yq7/AJBZ&#xA;/wBrz/p0xV3/ACCz/tef9OmKu/5BZ/2vP+nTFXf8gs/7Xn/Tpirv+QWf9rz/AKdMVd/yCz/tef8A&#xA;Tpirv+QWf9rz/p0xV3/ILP8Atef9OmKu/wCQWf8Aa8/6dMVZz5G/6FX+sR/4j/xHy29T656X1T3/&#xA;AN4f9I64q+wPyy/5Vb+hP+Qefo79G7et+j+HPl2+sf7t5/8AGTfFWYYq7FX/2Q==</xmpGImg:image>
               </rdf:li>
            </rdf:Alt>
         </xmp:Thumbnails>
      </rdf:Description>
      <rdf:Description rdf:about=""
            xmlns:pdf="http://ns.adobe.com/pdf/1.3/">
         <pdf:Producer>Adobe PDF library 10.01</pdf:Producer>
      </rdf:Description>
      <rdf:Description rdf:about=""
            xmlns:dc="http://purl.org/dc/elements/1.1/">
         <dc:format>image/svg+xml</dc:format>
      </rdf:Description>
      <rdf:Description rdf:about=""
            xmlns:xmpTPg="http://ns.adobe.com/xap/1.0/t/pg/"
            xmlns:stDim="http://ns.adobe.com/xap/1.0/sType/Dimensions#"
            xmlns:xmpG="http://ns.adobe.com/xap/1.0/g/">
         <xmpTPg:MaxPageSize rdf:parseType="Resource">
            <stDim:w>50.000000</stDim:w>
            <stDim:h>50.000000</stDim:h>
            <stDim:unit>Pixels</stDim:unit>
         </xmpTPg:MaxPageSize>
         <xmpTPg:NPages>1</xmpTPg:NPages>
         <xmpTPg:HasVisibleTransparency>False</xmpTPg:HasVisibleTransparency>
         <xmpTPg:HasVisibleOverprint>False</xmpTPg:HasVisibleOverprint>
         <xmpTPg:PlateNames>
            <rdf:Seq>
               <rdf:li>Cyan</rdf:li>
               <rdf:li>Magenta</rdf:li>
               <rdf:li>Yellow</rdf:li>
               <rdf:li>Black</rdf:li>
            </rdf:Seq>
         </xmpTPg:PlateNames>
         <xmpTPg:SwatchGroups>
            <rdf:Seq>
               <rdf:li rdf:parseType="Resource">
                  <xmpG:groupName>Default Swatch Group</xmpG:groupName>
                  <xmpG:groupType>0</xmpG:groupType>
               </rdf:li>
            </rdf:Seq>
         </xmpTPg:SwatchGroups>
      </rdf:Description>
   </rdf:RDF>
</x:xmpmeta>
                                                                                                    
                                                                                                    
                                                                                                    
                                                                                                    
                                                                                                    
                                                                                                    
                                                                                                    
                                                                                                    
                                                                                                    
                                                                                                    
                                                                                                    
                                                                                                    
                                                                                                    
                                                                                                    
                                                                                                    
                                                                                                    
                                                                                                    
                                                                                                    
                                                                                                    
                                                                                                    
                           
<?xpacket end="w"?>
	</metadata>
<g id="Layer_1" display="none">
	<g display="inline">
		<g>
			<g>
				<path d="M34.769,11.184c0.374,0.374,0.729,0.763,1.068,1.168c0.321,0.384,0.552,0.689,0.873,1.156
					c0.578,0.837,1.077,1.728,1.496,2.653c0.051,0.11,0.099,0.221,0.146,0.331c0.079,0.184-0.05-0.122,0.026,0.063
					c0.023,0.056,0.045,0.111,0.067,0.167c0.098,0.241,0.187,0.485,0.273,0.731c0.164,0.47,0.304,0.948,0.427,1.431
					c0.123,0.48,0.223,0.967,0.302,1.457c0.02,0.117,0.038,0.234,0.055,0.352c0.008,0.059,0.017,0.118,0.024,0.176
					c-0.021-0.148,0.005,0.047,0.008,0.064c0.03,0.255,0.054,0.511,0.073,0.767c0.073,0.985,0.058,1.977-0.036,2.96
					c-0.012,0.119-0.024,0.236-0.037,0.354c-0.007,0.059-0.016,0.117-0.021,0.176c-0.003,0.013-0.028,0.207-0.009,0.069
					c-0.037,0.255-0.08,0.509-0.126,0.762c-0.092,0.488-0.206,0.972-0.338,1.45c-0.134,0.481-0.289,0.956-0.464,1.423
					c-0.185,0.496-0.307,0.776-0.551,1.288c-0.441,0.919-0.97,1.796-1.566,2.622c-0.072,0.102-0.146,0.201-0.221,0.3
					c0.075-0.101-0.05,0.062-0.052,0.066c-0.039,0.05-0.078,0.098-0.117,0.146c-0.169,0.214-0.345,0.421-0.523,0.626
					c-0.349,0.398-0.718,0.779-1.101,1.145c-0.38,0.362-0.777,0.706-1.188,1.032c-0.16,0.129,0.099-0.074-0.064,0.051
					c-0.05,0.038-0.1,0.076-0.149,0.113c-0.098,0.074-0.198,0.147-0.3,0.22c-0.215,0.157-0.438,0.308-0.661,0.453
					c-0.849,0.555-1.749,1.029-2.682,1.425c0.136-0.057-0.048,0.021-0.062,0.026c-0.057,0.022-0.112,0.045-0.168,0.066
					c-0.111,0.044-0.224,0.088-0.337,0.129c-0.242,0.091-0.488,0.174-0.735,0.254c-0.474,0.152-0.954,0.281-1.439,0.393
					c-0.482,0.111-0.971,0.198-1.462,0.268c-0.016,0.002-0.212,0.027-0.063,0.009c-0.059,0.008-0.117,0.014-0.176,0.021
					c-0.119,0.014-0.236,0.025-0.354,0.038c-0.255,0.023-0.512,0.041-0.769,0.055c-0.987,0.05-1.977,0.011-2.958-0.106
					c-0.06-0.007-0.118-0.015-0.177-0.022c-0.195-0.025,0.125,0.019-0.069-0.009c-0.118-0.018-0.235-0.036-0.352-0.056
					c-0.254-0.042-0.507-0.091-0.759-0.145c-0.486-0.103-0.968-0.229-1.443-0.372c-0.478-0.145-0.949-0.313-1.413-0.498
					c-0.056-0.022-0.111-0.045-0.167-0.069c0.122,0.051-0.061-0.025-0.069-0.03c-0.111-0.047-0.221-0.096-0.331-0.146
					c-0.239-0.107-0.475-0.223-0.708-0.343c-0.453-0.23-0.894-0.484-1.324-0.755c-0.208-0.132-0.414-0.268-0.616-0.408
					c-0.102-0.069-0.203-0.141-0.303-0.214c-0.05-0.036-0.1-0.072-0.15-0.11c-0.017-0.012-0.207-0.156-0.117-0.086
					c-0.836-0.641-1.61-1.362-2.317-2.144c-0.169-0.187-0.333-0.377-0.495-0.57c-0.08-0.097-0.159-0.194-0.236-0.292
					c-0.127-0.161,0.075,0.098-0.051-0.063c-0.05-0.066-0.1-0.133-0.15-0.199c-0.308-0.411-0.596-0.838-0.866-1.274
					c-0.267-0.433-0.513-0.878-0.74-1.331c-0.108-0.217-0.211-0.436-0.311-0.656c-0.049-0.109-0.097-0.221-0.145-0.331
					c0.058,0.136-0.019-0.049-0.025-0.063c-0.03-0.075-0.06-0.149-0.089-0.224c-0.364-0.928-0.642-1.888-0.84-2.863
					c-0.048-0.233-0.089-0.468-0.127-0.702c-0.019-0.117-0.036-0.235-0.052-0.352c-0.002-0.017-0.028-0.213-0.009-0.064
					c-0.01-0.078-0.02-0.157-0.028-0.235c-0.056-0.491-0.087-0.984-0.101-1.478c-0.055-2.03,0.213-3.804,0.852-5.744
					c0.075-0.228,0.156-0.454,0.241-0.679c0.042-0.112,0.086-0.224,0.131-0.336c0.022-0.055,0.045-0.111,0.068-0.167
					c-0.048,0.116,0.045-0.104,0.054-0.124c0.201-0.463,0.424-0.917,0.664-1.36c0.243-0.449,0.509-0.884,0.791-1.31
					c0.137-0.205,0.279-0.408,0.424-0.607C9.557,13.05,9.593,13,9.63,12.951c0.003-0.004,0.126-0.167,0.049-0.067
					c0.089-0.116,0.18-0.23,0.271-0.343c0.663-0.821,1.404-1.578,2.203-2.266c0.722-0.623,1.528-1.195,2.437-1.726
					c0.438-0.256,0.887-0.489,1.345-0.705c0.109-0.052,0.219-0.102,0.33-0.15c0.055-0.025,0.111-0.048,0.166-0.073
					c0.014-0.006,0.198-0.083,0.062-0.027c0.241-0.101,0.484-0.194,0.728-0.283c0.935-0.341,1.9-0.595,2.879-0.771
					c0.234-0.042,0.469-0.078,0.705-0.11c0.195-0.027-0.133,0.016,0.063-0.008c0.059-0.007,0.118-0.014,0.177-0.021
					c0.138-0.016,0.275-0.029,0.413-0.041c0.492-0.043,0.986-0.063,1.48-0.065c0.494-0.001,0.988,0.02,1.48,0.061
					c0.235,0.02,0.472,0.045,0.708,0.074c0.059,0.007,0.117,0.015,0.176,0.023c-0.137-0.019,0.058,0.008,0.069,0.011
					c0.138,0.02,0.273,0.042,0.411,0.066c0.842,0.145,1.672,0.356,2.484,0.624c0.399,0.132,0.793,0.279,1.181,0.44
					c-0.06-0.025-0.056-0.023,0.015,0.006c0.055,0.023,0.109,0.048,0.165,0.072c0.11,0.048,0.221,0.098,0.33,0.149
					c0.201,0.093,0.4,0.191,0.599,0.292c0.782,0.4,1.531,0.863,2.244,1.377c0.083,0.061,0.167,0.122,0.249,0.184
					c0.061,0.046,0.066,0.05,0.018,0.013c0.049,0.038,0.099,0.076,0.147,0.114c0.18,0.142,0.358,0.288,0.532,0.437
					C34.101,10.539,34.441,10.856,34.769,11.184c0.251,0.249,0.669,0.245,0.917-0.005c0.248-0.251,0.244-0.666-0.005-0.915
					C32.705,7.3,28.779,5.476,24.604,5.078C20.55,4.69,16.382,5.756,13,8.018c-3.524,2.356-6.141,5.936-7.313,10.009
					c-1.133,3.94-0.846,8.208,0.741,11.981c1.63,3.874,4.673,7.113,8.421,9.011c3.663,1.854,7.9,2.38,11.912,1.533
					c4.091-0.863,7.82-3.225,10.383-6.521c2.543-3.268,3.896-7.352,3.799-11.494c-0.1-4.167-1.681-8.192-4.398-11.345
					c-0.275-0.32-0.564-0.629-0.863-0.928c-0.249-0.25-0.67-0.245-0.916,0.005C34.517,10.521,34.521,10.934,34.769,11.184z"/>
			</g>
		</g>
		<g>
			<g>
				<path d="M34.769,35.692c1.275,1.272,2.548,2.545,3.822,3.817c1.669,1.668,3.337,3.336,5.007,5.004
					c0.102,0.101,0.203,0.201,0.303,0.302c0.249,0.249,0.668,0.246,0.916-0.005s0.243-0.666-0.006-0.915
					c-1.273-1.272-2.547-2.546-3.82-3.818c-1.67-1.667-3.339-3.336-5.007-5.003c-0.102-0.102-0.203-0.201-0.303-0.303
					c-0.249-0.248-0.669-0.245-0.916,0.005C34.517,35.028,34.52,35.442,34.769,35.692L34.769,35.692z"/>
			</g>
		</g>
		<g>
			<g>
				<path d="M26.456,18.274c-0.001,0.121-0.006,0.241-0.016,0.361c-0.004,0.059-0.012,0.119-0.019,0.177
					c0.017-0.138-0.011,0.054-0.014,0.067c-0.044,0.248-0.116,0.489-0.205,0.724c-0.065,0.177,0.054-0.114-0.023,0.059
					c-0.022,0.052-0.047,0.104-0.072,0.155c-0.051,0.102-0.106,0.201-0.165,0.298c-0.057,0.097-0.12,0.19-0.187,0.283
					c-0.107,0.152,0.08-0.098-0.036,0.048c-0.047,0.059-0.097,0.115-0.146,0.171c-0.15,0.168-0.316,0.322-0.491,0.465
					c0.114-0.093-0.032,0.023-0.048,0.034c-0.045,0.034-0.093,0.065-0.139,0.096c-0.11,0.074-0.225,0.14-0.341,0.203
					c-0.1,0.055-0.204,0.103-0.308,0.148c0.143-0.063-0.033,0.011-0.053,0.018c-0.054,0.02-0.108,0.038-0.163,0.056
					c-0.11,0.036-0.223,0.065-0.335,0.092c-0.057,0.014-0.115,0.025-0.172,0.036c-0.025,0.005-0.267,0.04-0.12,0.021
					c-0.239,0.029-0.48,0.032-0.721,0.021c-0.06-0.003-0.119-0.008-0.179-0.014c-0.013-0.001-0.207-0.028-0.069-0.007
					c-0.135-0.02-0.269-0.05-0.401-0.083c-0.112-0.029-0.222-0.063-0.332-0.102c-0.054-0.018-0.108-0.039-0.161-0.06
					c0.131,0.051-0.043-0.02-0.057-0.026c-0.224-0.103-0.436-0.229-0.639-0.369c-0.013-0.009-0.163-0.121-0.049-0.034
					c-0.045-0.035-0.088-0.071-0.131-0.107c-0.086-0.073-0.168-0.15-0.249-0.229c-0.08-0.08-0.155-0.164-0.229-0.249
					c-0.012-0.013-0.128-0.16-0.039-0.043c-0.046-0.06-0.089-0.121-0.132-0.183c-0.129-0.188-0.239-0.387-0.336-0.592
					c-0.009-0.019-0.082-0.194-0.023-0.05c-0.021-0.053-0.042-0.107-0.061-0.161c-0.045-0.126-0.082-0.257-0.115-0.388
					c-0.028-0.114-0.05-0.229-0.069-0.345c-0.032-0.192,0.013,0.133-0.008-0.063c-0.006-0.059-0.01-0.119-0.014-0.179
					c-0.017-0.26-0.003-0.521,0.028-0.78c-0.017,0.139,0.011-0.053,0.014-0.066c0.01-0.058,0.023-0.115,0.036-0.172
					c0.025-0.113,0.058-0.225,0.092-0.335c0.018-0.055,0.037-0.109,0.056-0.164c0.005-0.014,0.076-0.19,0.021-0.06
					c0.052-0.123,0.112-0.241,0.175-0.358c0.054-0.1,0.114-0.196,0.176-0.291c0.031-0.047,0.063-0.093,0.096-0.139
					c0.108-0.153-0.08,0.098,0.037-0.048c0.152-0.191,0.324-0.366,0.507-0.528c0.042-0.037,0.085-0.073,0.129-0.108
					c-0.114,0.093,0.032-0.023,0.047-0.034c0.091-0.067,0.187-0.128,0.283-0.187c0.097-0.06,0.197-0.113,0.298-0.164
					c0.05-0.026,0.103-0.05,0.155-0.073c0.07-0.031,0.069-0.031-0.002,0c0.036-0.014,0.071-0.028,0.107-0.041
					c0.217-0.082,0.443-0.14,0.67-0.184c0.058-0.011,0.116-0.02,0.174-0.029c-0.148,0.022,0.046-0.003,0.064-0.004
					c0.14-0.013,0.281-0.016,0.421-0.015c0.121,0.001,0.24,0.01,0.36,0.021c0.014,0.001,0.207,0.028,0.069,0.007
					c0.058,0.009,0.116,0.02,0.173,0.031c0.247,0.047,0.487,0.123,0.72,0.214c-0.131-0.051,0.043,0.02,0.057,0.026
					c0.052,0.023,0.103,0.049,0.153,0.075c0.101,0.052,0.2,0.109,0.295,0.168c0.097,0.059,0.189,0.124,0.28,0.191
					c-0.115-0.085,0.033,0.028,0.047,0.039c0.058,0.047,0.114,0.098,0.169,0.148c0.084,0.076,0.163,0.157,0.239,0.239
					c0.039,0.042,0.076,0.084,0.112,0.127c0.012,0.013,0.129,0.16,0.039,0.043c0.149,0.194,0.278,0.404,0.393,0.622
					c0.034,0.067,0.066,0.136,0.098,0.205c0.031,0.071,0.031,0.07,0-0.002c0.015,0.036,0.028,0.072,0.041,0.107
					c0.056,0.145,0.098,0.293,0.135,0.442c0.02,0.076,0.035,0.152,0.05,0.229c0.006,0.025,0.04,0.267,0.021,0.119
					C26.448,17.954,26.455,18.114,26.456,18.274c0.003,0.353,0.287,0.65,0.643,0.652c0.35,0.002,0.654-0.29,0.652-0.643
					c-0.016-2.16-1.467-4.074-3.547-4.663c-2.092-0.591-4.354,0.374-5.455,2.224c-1.113,1.871-0.754,4.318,0.759,5.853
					c1.527,1.547,3.984,1.83,5.852,0.752c1.473-0.85,2.379-2.475,2.392-4.166C27.757,17.448,26.463,17.441,26.456,18.274z"/>
			</g>
		</g>
		<g>
			<g>
				<path d="M27.724,22.946c0.38,0.244,0.731,0.549,1.082,0.963c0.005,0.005,0.131,0.166,0.052,0.063
					c0.038,0.05,0.073,0.1,0.11,0.151c0.072,0.103,0.139,0.208,0.204,0.315c0.064,0.107,0.124,0.219,0.18,0.33
					c0.029,0.056,0.055,0.113,0.082,0.17c0.018,0.039,0.034,0.077,0.051,0.116c-0.025-0.063-0.024-0.058,0.004,0.016
					c0.095,0.238,0.164,0.484,0.221,0.733c0.029,0.127,0.05,0.255,0.068,0.383c-0.019-0.13,0.008,0.083,0.008,0.089
					c0.009,0.088,0.013,0.176,0.018,0.264c0.008,0.169,0.004,0.338,0.004,0.506c0,0.644,0,1.286,0,1.93
					c0,0.443,0.02,0.892-0.005,1.334c-0.01,0.189,0.025-0.115-0.011,0.067c-0.012,0.058-0.03,0.112-0.048,0.168
					c-0.056,0.176,0.055-0.106-0.025,0.058c-0.025,0.052-0.056,0.1-0.086,0.147c-0.096,0.154,0.082-0.09-0.035,0.049
					c-0.037,0.043-0.077,0.083-0.118,0.122c-0.015,0.015-0.159,0.124-0.043,0.039c-0.062,0.045-0.127,0.082-0.193,0.117
					c-0.164,0.088,0.125-0.041-0.051,0.022c-0.056,0.02-0.111,0.034-0.168,0.047c-0.021,0.005-0.207,0.025-0.063,0.013
					c-0.032,0.003-0.088,0.004-0.12,0.004c-0.014,0-0.026,0-0.04,0c-0.243,0-0.485,0-0.729,0c-1.12,0-2.242,0-3.362,0
					c-2.418,0-4.837,0-7.256,0c-0.188,0-0.377,0.007-0.565-0.004c-0.189-0.011,0.116,0.026-0.067-0.012
					c-0.057-0.012-0.112-0.029-0.168-0.048c-0.176-0.056,0.106,0.056-0.058-0.024c-0.051-0.025-0.099-0.055-0.147-0.085
					c-0.155-0.098,0.09,0.08-0.049-0.036c-0.043-0.036-0.083-0.077-0.122-0.117c-0.015-0.016-0.124-0.161-0.039-0.043
					c-0.045-0.062-0.082-0.129-0.117-0.195c-0.087-0.164,0.041,0.125-0.022-0.051c-0.02-0.054-0.034-0.111-0.047-0.167
					c-0.005-0.021-0.026-0.207-0.012-0.062c-0.003-0.035-0.004-0.088-0.004-0.122c0-0.043,0-0.086,0-0.13c0-1.097,0-2.194,0-3.292
					c0-0.098,0.002-0.195,0.007-0.293c0.005-0.109,0.015-0.22,0.027-0.329c0.009-0.078,0.01-0.088,0.003-0.029
					c0.009-0.064,0.021-0.128,0.034-0.192c0.039-0.211,0.096-0.418,0.162-0.622c0.084-0.264,0.104-0.303,0.227-0.551
					c0.21-0.424,0.411-0.705,0.675-1.003c0.317-0.356,0.58-0.568,0.912-0.785c0.295-0.192,0.415-0.57,0.231-0.886
					c-0.172-0.293-0.591-0.423-0.886-0.23c-0.936,0.61-1.701,1.464-2.161,2.486c-0.364,0.81-0.525,1.664-0.525,2.549
					c0,1.094,0,2.188,0,3.281c0,1.075,0.779,2.066,1.855,2.247c0.268,0.044,0.528,0.04,0.798,0.04c0.99,0,1.981,0,2.972,0
					c2.543,0,5.086,0,7.629,0c0.259,0,0.519,0,0.777,0c0.832,0,1.569-0.403,2.011-1.109c0.345-0.55,0.317-1.172,0.317-1.789
					c0-0.676,0-1.353,0-2.027c0-0.825-0.004-1.634-0.238-2.435c-0.397-1.357-1.307-2.513-2.492-3.271
					c-0.298-0.19-0.714-0.059-0.884,0.236C27.305,22.378,27.427,22.756,27.724,22.946L27.724,22.946z"/>
			</g>
		</g>
	</g>
</g>
<g id="Layer_2">
	<g>
		<g>
			<g>
				<path d="M43.435,39.322c-0.002,0.121-0.007,0.24-0.015,0.359c-0.024,0.383,0.049-0.242-0.016,0.132
					c-0.041,0.228-0.108,0.448-0.184,0.666c-0.124,0.351,0.107-0.223-0.05,0.11c-0.048,0.104-0.104,0.201-0.16,0.299
					c-0.054,0.098-0.117,0.192-0.18,0.285c-0.089,0.119-0.089,0.121-0.002,0.005c-0.048,0.056-0.096,0.114-0.146,0.168
					c-0.148,0.169-0.313,0.318-0.486,0.463c0.228-0.189-0.061,0.035-0.095,0.059c-0.094,0.063-0.19,0.119-0.29,0.173
					c-0.098,0.057-0.199,0.104-0.303,0.154c0.283-0.135-0.057,0.015-0.102,0.03c-0.108,0.039-0.221,0.066-0.331,0.097
					c-0.055,0.014-0.53,0.094-0.229,0.057c-0.367,0.045-0.753,0.025-1.122,0.025c-1.67,0-3.338,0-5.008,0c-5.461,0-10.92,0-16.381,0
					c-2.168,0-4.336,0-6.505,0c-0.588,0-1.177,0-1.765,0c-0.726,0-0.979,0.014-1.686-0.255c0.265,0.1-0.073-0.043-0.106-0.059
					c-0.101-0.052-0.198-0.11-0.294-0.166c-0.096-0.059-0.187-0.123-0.279-0.19c0.235,0.169-0.054-0.057-0.082-0.08
					c-0.168-0.149-0.319-0.315-0.463-0.486c0.19,0.227-0.035-0.061-0.057-0.096c-0.084-0.125-0.157-0.257-0.229-0.39
					c-0.021-0.038-0.171-0.38-0.053-0.091c-0.043-0.105-0.078-0.214-0.112-0.322c-0.035-0.11-0.061-0.223-0.088-0.335
					c-0.009-0.039-0.067-0.417-0.03-0.116c-0.021-0.171-0.026-0.345-0.026-0.516c0-0.497,0-0.994,0-1.492c0-2.395,0-4.791,0-7.186
					c0-2.682,0-5.361,0-8.042c0-0.853,0-1.707,0-2.56c0-0.201,0-0.402,0-0.604c0-0.031,0-0.062,0-0.093
					c0-0.16,0.011-0.319,0.026-0.478c-0.026,0.278,0.023-0.095,0.029-0.127c0.03-0.15,0.076-0.298,0.122-0.444
					c0.011-0.033,0.152-0.377,0.038-0.117c0.045-0.104,0.098-0.204,0.152-0.303c0.053-0.099,0.114-0.194,0.174-0.289
					c0.021-0.032,0.243-0.323,0.063-0.097c0.139-0.175,0.297-0.334,0.462-0.487c0.029-0.027,0.319-0.254,0.081-0.076
					c0.12-0.09,0.248-0.168,0.375-0.247c0.096-0.059,0.198-0.109,0.298-0.16c0.334-0.167-0.254,0.091,0.096-0.042
					c0.216-0.081,0.44-0.136,0.666-0.183c0.375-0.077-0.265,0.018,0.12-0.019c0.119-0.012,0.239-0.013,0.358-0.014
					c0.005,0,0.011,0,0.017,0c0.321,0,0.642,0,0.963,0c1.816,0,3.631,0,5.448,0c5.488,0,10.974,0,16.461,0c2.049,0,4.095,0,6.143,0
					c0.496,0,0.991,0,1.484,0c0.071,0,0.141,0,0.212,0c0.105,0,0.136,0.002,0.24,0.006c0.03,0.001,0.415,0.045,0.136,0.004
					c0.229,0.034,0.452,0.095,0.673,0.166c0.035,0.011,0.376,0.152,0.117,0.038c0.104,0.045,0.203,0.099,0.303,0.152
					c0.1,0.053,0.194,0.114,0.29,0.174c0.061,0.041,0.123,0.083,0.184,0.127c-0.115-0.088-0.115-0.085-0.002,0.007
					c0.173,0.144,0.328,0.306,0.476,0.475c0.242,0.275-0.147-0.212,0.064,0.088c0.067,0.091,0.126,0.187,0.182,0.284
					c0.061,0.097,0.11,0.198,0.16,0.298c0.169,0.334-0.089-0.254,0.044,0.097c0.095,0.252,0.155,0.515,0.203,0.78
					c-0.052-0.296,0.004,0.083,0.006,0.125c0.005,0.065,0.007,0.175,0.007,0.24c0,0.007,0,0.015,0,0.022c0,0.056,0,0.111,0,0.167
					c0,0.637,0,1.275,0,1.913c0,2.52,0,5.039,0,7.558C43.435,32.421,43.435,35.873,43.435,39.322c0,0.708,0.58,1.305,1.289,1.309
					c0.703,0.005,1.307-0.581,1.307-1.289c0-4.079,0-8.158,0-12.233c0-2.25,0-4.498,0-6.746c0-0.425,0.011-0.851-0.007-1.277
					c-0.095-2.365-1.654-4.31-3.83-5.13c-1.205-0.455-2.691-0.306-3.963-0.306c-2.158,0-4.315,0-6.474,0c-5.461,0-10.927,0-16.391,0
					c-1.683,0-3.366,0-5.048,0c-0.344,0-0.689-0.008-1.033,0.014c-2.351,0.159-4.284,1.726-5.049,3.93
					c-0.264,0.758-0.27,1.554-0.27,2.345c0,0.833,0,1.664,0,2.497c0,2.667,0,5.331,0,8.001c0,2.418,0,4.838,0,7.259
					c0,0.523,0,1.047,0,1.57c0,1.862,0.87,3.538,2.349,4.652C7.792,45.026,9.471,45,11.196,45c2.012,0,4.026,0,6.039,0
					c5.492,0,10.981,0,16.473,0c1.855,0,3.709,0,5.565,0c0.348,0,0.698,0,1.047,0c1.916,0,3.56-0.932,4.693-2.438
					c0.684-0.908,1.001-2.098,1.017-3.221C46.052,37.666,43.456,37.652,43.435,39.322z"/>
			</g>
		</g>
		<g>
			<g>
				<path d="M18.778,10.68c0.002-0.12,0.006-0.239,0.015-0.358c0.026-0.383-0.05,0.241,0.016-0.132
					c0.041-0.227,0.108-0.449,0.183-0.665c0.123-0.352-0.108,0.222,0.049-0.112c0.049-0.102,0.104-0.2,0.16-0.299
					c0.055-0.097,0.119-0.19,0.182-0.283c0.086-0.121,0.086-0.122,0.001-0.004c0.046-0.058,0.095-0.114,0.145-0.171
					c0.148-0.167,0.314-0.318,0.487-0.461c-0.228,0.19,0.062-0.035,0.095-0.058c0.094-0.063,0.192-0.119,0.29-0.175
					c0.097-0.055,0.2-0.104,0.303-0.151c-0.282,0.132,0.056-0.016,0.102-0.032c0.109-0.038,0.221-0.067,0.331-0.095
					c0.054-0.014,0.529-0.094,0.229-0.057c0.933-0.114,1.921-0.026,2.858-0.026c1.211,0,2.422,0,3.634,0c0.091,0,0.182,0,0.272,0
					c0.162,0,0.322,0.011,0.482,0.026c-0.277-0.026,0.095,0.022,0.127,0.029c0.151,0.03,0.299,0.076,0.446,0.123
					c0.032,0.01,0.376,0.152,0.116,0.038c0.104,0.045,0.203,0.099,0.303,0.151c0.1,0.054,0.195,0.115,0.288,0.175
					c0.032,0.02,0.324,0.242,0.098,0.063c0.177,0.139,0.335,0.298,0.486,0.462c0.028,0.029,0.255,0.318,0.075,0.082
					c0.091,0.12,0.171,0.247,0.247,0.375c0.078,0.129,0.145,0.264,0.208,0.4c-0.059-0.147-0.061-0.149-0.005-0.005
					c0.041,0.107,0.071,0.217,0.104,0.328c0.044,0.148,0.071,0.3,0.1,0.453c-0.017-0.153-0.017-0.15-0.002,0.005
					c0.011,0.119,0.013,0.238,0.016,0.358c0.008,0.706,0.57,1.302,1.286,1.308c0.697,0.004,1.317-0.582,1.309-1.289
					c-0.032-2.36-1.449-4.401-3.625-5.288c-1.111-0.453-2.292-0.389-3.465-0.389c-1.326,0-2.65,0-3.975,0
					c-1.398,0-2.729,0.112-3.952,0.893c-1.621,1.036-2.588,2.851-2.614,4.765C16.16,12.339,18.757,12.351,18.778,10.68L18.778,10.68
					z"/>
			</g>
		</g>
	</g>
</g>
</svg>
