<?xml version="1.0" ?><svg height="512" id="Layer_1" version="1.1" viewBox="0 0 512 512" width="512" xml:space="preserve"
 xmlns="http://www.w3.org/2000/svg" xmlns:cc="http://creativecommons.org/ns#" 
 xmlns:dc="http://purl.org/dc/elements/1.1/" xmlns:inkscape="http://www.inkscape.org/namespaces/inkscape"
  xmlns:rdf="http://www.w3.org/1999/02/22-rdf-syntax-ns#"
   xmlns:sodipodi="http://sodipodi.sourceforge.net/DTD/sodipodi-0.dtd" 
   xmlns:svg="http://www.w3.org/2000/svg"><defs id="defs12"/><rect height="512" id="rect2987" style="fill:#00bcd4;fill-opacity:1;fill-rule:nonzero;stroke:none" width="512" x="0" y="5.6843419e-014"/><path d="m 244.8216,55.999997 c -14.09191,0 -25.49903,11.40709 -25.49903,25.49904 0,14.091826 11.40712,25.499023 25.49903,25.499023 14.0918,0 25.5505,-11.407197 25.5505,-25.499023 0,-14.09195 -11.4587,-25.49904 -25.5505,-25.49904 z m 56.407,0 c -14.092,0 -25.4991,11.40709 -25.4991,25.49904 0,14.091826 11.4071,25.499023 25.4991,25.499023 14.0917,0 25.5505,-11.407197 25.5505,-25.499023 0,-14.09195 -11.4588,-25.49904 -25.5505,-25.49904 z m -110.13526,18.23568 c -14.09195,0 -25.49903,11.40715 -25.49903,25.499027 0,14.091886 11.40708,25.499036 25.49903,25.499036 14.09179,0 25.55055,-11.40715 25.55055,-25.499036 0,-14.091877 -11.45876,-25.499027 -25.55055,-25.499027 z m 164.94526,0.61816 c -14.092,0 -25.5505,11.45866 -25.5505,25.550533 0,14.09187 11.4585,25.49904 25.5505,25.49904 14.09189,0 25.49899,-11.40717 25.49899,-25.49904 0,-14.091873 -11.4071,-25.550533 -25.49899,-25.550533 z M 145.86475,107.30714 c -14.09196,0 -25.49903,11.40715 -25.49903,25.49904 0,14.09188 11.40708,25.55054 25.49903,25.55054 14.09179,0 25.49904,-11.45866 25.49904,-25.55054 0,-14.09189 -11.40725,-25.49904 -25.49904,-25.49904 z m 255.40245,1.69994 c -14.092,0 -25.4991,11.40715 -25.4991,25.49903 0,14.09187 11.4071,25.55055 25.4991,25.55055 14.0919,0 25.499,-11.45868 25.499,-25.55055 0,-14.09188 -11.4071,-25.49903 -25.499,-25.49903 z m -157.4243,4.73921 c -14.09204,0 -25.49908,11.40715 -25.49908,25.49904 0,14.09188 11.40704,25.55054 25.49908,25.55054 14.0917,0 25.4989,-11.45866 25.4989,-25.55054 0,-14.09189 -11.4072,-25.49904 -25.4989,-25.49904 z m 58.4674,0.36059 c -14.0919,0 -25.5506,11.40715 -25.5506,25.49904 0,14.09188 11.4587,25.49903 25.5506,25.49903 14.092,0 25.4991,-11.40715 25.4991,-25.49903 0,-14.09189 -11.4071,-25.49904 -25.4991,-25.49904 z m -108.79584,26.01417 c -14.09195,0 -25.55055,11.40715 -25.55055,25.49904 0,14.09188 11.4586,25.49903 25.55055,25.49903 14.09179,0 25.49904,-11.40715 25.49904,-25.49903 0,-14.09189 -11.40725,-25.49904 -25.49904,-25.49904 z m 159.48484,1.69994 c -14.0919,0 -25.5506,11.40715 -25.5506,25.49903 0,14.09189 11.4587,25.49903 25.5506,25.49903 14.09179,0 25.4991,-11.40714 25.4991,-25.49903 0,-14.09188 -11.40731,-25.49903 -25.4991,-25.49903 z m -239.58786,11.79652 c -14.091965,0 -25.499045,11.40715 -25.499045,25.49903 0,14.09189 11.40708,25.49904 25.499045,25.49904 14.09195,0 25.49903,-11.40715 25.49903,-25.49904 0,-14.09188 -11.40708,-25.49903 -25.49903,-25.49903 z m 46.61943,33.43207 c -14.09193,0 -25.55055,11.40716 -25.55055,25.49903 0,14.09189 11.45862,25.55055 25.55055,25.55055 14.0918,0 25.49905,-11.45866 25.49905,-25.55055 0,-14.09187 -11.40725,-25.49903 -25.49905,-25.49903 z m -61.815835,21.99613 c -14.09195,0 -25.49903,11.40715 -25.49903,25.49904 0,14.09188 11.40708,25.49903 25.49903,25.49903 14.091795,0 25.499045,-11.40715 25.499045,-25.49903 0,-14.09189 -11.40725,-25.49904 -25.499045,-25.49904 z m 54.707015,33.79266 c -14.09195,0 -25.49903,11.40717 -25.49903,25.49904 0,14.09188 11.40708,25.49903 25.49903,25.49903 14.0918,0 25.55056,-11.40715 25.55056,-25.49903 0,-14.09187 -11.45876,-25.49904 -25.55056,-25.49904 z m -52.33741,22.6143 c -14.091935,0 -25.550545,11.40715 -25.550545,25.49903 0,14.09187 11.45861,25.49904 25.550545,25.49904 14.09195,0 25.49903,-11.40717 25.49903,-25.49904 0,-14.09188 -11.40708,-25.49903 -25.49903,-25.49903 z m 71.65487,31.06246 c -14.09194,0 -25.55056,11.45866 -25.55056,25.55054 0,14.09189 11.45862,25.49904 25.55056,25.49904 14.09195,0 25.49903,-11.40715 25.49903,-25.49904 0,-14.09188 -11.40708,-25.55054 -25.49903,-25.55054 z m 195.59558,5.40888 c -14.09189,0 -25.55059,11.40715 -25.55059,25.49904 0,14.09188 11.4587,25.55054 25.5506,25.55054 14.09189,0 25.4991,-11.45866 25.4991,-25.55054 0,-14.09189 -11.40721,-25.49904 -25.4991,-25.49904 z m -247.00576,16.53574 c -14.09196,0 -25.499035,11.40715 -25.499035,25.49903 0,14.09187 11.407075,25.55055 25.499035,25.55055 14.09178,0 25.55054,-11.45868 25.55054,-25.55055 0,-14.09188 -11.45876,-25.49903 -25.55054,-25.49903 z m 93.2389,16.58725 c -14.09195,0 -25.49904,11.45866 -25.49904,25.55055 0,14.09188 11.40709,25.49903 25.49904,25.49903 14.0919,0 25.55057,-11.40715 25.55057,-25.49903 0,-14.09189 -11.45867,-25.55055 -25.55057,-25.55055 z m 110.49577,2.36961 c -14.0919,0 -25.499,11.40715 -25.499,25.49903 0,14.09187 11.4071,25.49904 25.499,25.49904 14.0919,0 25.4991,-11.40717 25.4991,-25.49904 0,-14.09188 -11.4072,-25.49903 -25.4991,-25.49903 z m 89.22089,0 c -14.0919,0 -25.5506,11.40715 -25.5506,25.49903 0,14.09187 11.4587,25.49904 25.5506,25.49904 14.0918,0 25.4991,-11.40717 25.4991,-25.49904 0,-14.09188 -11.4073,-25.49903 -25.4991,-25.49903 z M 269.1358,349.21313 c -14.0919,0 -25.499,11.40715 -25.499,25.49903 0,14.09189 11.4071,25.55055 25.499,25.55055 14.0919,0 25.5505,-11.45866 25.5505,-25.55055 0,-14.09188 -11.4586,-25.49903 -25.5505,-25.49903 z m -112.1442,12.51771 c -14.09195,0 -25.55055,11.40715 -25.55055,25.49903 0,14.09189 11.4586,25.49904 25.55055,25.49904 14.09195,0 25.49904,-11.40715 25.49904,-25.49904 0,-14.09188 -11.40709,-25.49903 -25.49905,-25.49903 z m 213.5222,13.18738 c -14.0919,0 -25.499,11.40716 -25.499,25.49903 0,14.09189 11.4071,25.55055 25.499,25.55055 14.09179,0 25.4991,-11.45866 25.4991,-25.55055 0,-14.09187 -11.40731,-25.49903 -25.4991,-25.49903 z m -164.84222,16.53574 c -14.09194,0 -25.55055,11.45866 -25.55055,25.55054 0,14.09189 11.45861,25.49904 25.55055,25.49904 14.09178,0 25.49906,-11.40715 25.49906,-25.49904 0,-14.09188 -11.40728,-25.55054 -25.49906,-25.55054 z m 112.45332,7.10882 c -14.092,0 -25.4991,11.40715 -25.4991,25.49903 0,14.09187 11.4071,25.49903 25.4991,25.49903 14.0919,0 25.5506,-11.40716 25.5506,-25.49903 0,-14.09188 -11.4587,-25.49903 -25.5506,-25.49903 z m -56.407,6.43915 c -14.0919,0 -25.49896,11.40715 -25.49896,25.49903 0,14.09189 11.40706,25.49904 25.49896,25.49904 14.092,0 25.4991,-11.40715 25.4991,-25.49904 0,-14.09188 -11.4071,-25.49903 -25.4991,-25.49903 z" id="path5-6" style="fill:#ffffff;fill-opacity:1"/></svg>