<?xml version="1.0" encoding="utf-8"?>
<!-- Generator: Adobe Illustrator 16.0.0, SVG Export Plug-In . SVG Version: 6.00 Build 0)  -->
<!DOCTYPE svg PUBLIC "-//W3C//DTD SVG 1.1//EN" "http://www.w3.org/Graphics/SVG/1.1/DTD/svg11.dtd" [
	<!ENTITY ns_flows "http://ns.adobe.com/Flows/1.0/">
	<!ENTITY ns_extend "http://ns.adobe.com/Extensibility/1.0/">
	<!ENTITY ns_ai "http://ns.adobe.com/AdobeIllustrator/10.0/">
	<!ENTITY ns_graphs "http://ns.adobe.com/Graphs/1.0/">
]>
<svg version="1.1" id="Layer_1" xmlns:x="&ns_extend;" xmlns:i="&ns_ai;" xmlns:graph="&ns_graphs;"
	 xmlns="http://www.w3.org/2000/svg" xmlns:xlink="http://www.w3.org/1999/xlink" xmlns:a="http://ns.adobe.com/AdobeSVGViewerExtensions/3.0/"
	 x="0px" y="0px" width="50px" height="50px" viewBox="0 0 50 50" enable-background="new 0 0 50 50" xml:space="preserve">
<metadata><?xpacket begin="﻿" id="W5M0MpCehiHzreSzNTczkc9d"?>
<x:xmpmeta xmlns:x="adobe:ns:meta/" x:xmptk="Adobe XMP Core 5.3-c011 66.145661, 2012/02/06-14:56:27        ">
   <rdf:RDF xmlns:rdf="http://www.w3.org/1999/02/22-rdf-syntax-ns#">
      <rdf:Description rdf:about=""
            xmlns:xmpMM="http://ns.adobe.com/xap/1.0/mm/"
            xmlns:stRef="http://ns.adobe.com/xap/1.0/sType/ResourceRef#"
            xmlns:stEvt="http://ns.adobe.com/xap/1.0/sType/ResourceEvent#">
         <xmpMM:RenditionClass>proof:pdf</xmpMM:RenditionClass>
         <xmpMM:DocumentID>xmp.did:ED200ABD486CE711A4BAA3D71CA81245</xmpMM:DocumentID>
         <xmpMM:InstanceID>xmp.iid:ED200ABD486CE711A4BAA3D71CA81245</xmpMM:InstanceID>
         <xmpMM:OriginalDocumentID>uuid:6582382f-8001-4be6-b5bc-a45f8f5520ae</xmpMM:OriginalDocumentID>
         <xmpMM:DerivedFrom rdf:parseType="Resource">
            <stRef:instanceID>xmp.iid:EC200ABD486CE711A4BAA3D71CA81245</stRef:instanceID>
            <stRef:documentID>xmp.did:EC200ABD486CE711A4BAA3D71CA81245</stRef:documentID>
            <stRef:originalDocumentID>uuid:6582382f-8001-4be6-b5bc-a45f8f5520ae</stRef:originalDocumentID>
            <stRef:renditionClass>proof:pdf</stRef:renditionClass>
         </xmpMM:DerivedFrom>
         <xmpMM:History>
            <rdf:Seq>
               <rdf:li rdf:parseType="Resource">
                  <stEvt:action>saved</stEvt:action>
                  <stEvt:instanceID>xmp.iid:EC200ABD486CE711A4BAA3D71CA81245</stEvt:instanceID>
                  <stEvt:when>2017-07-19T11:38:52+05:30</stEvt:when>
                  <stEvt:softwareAgent>Adobe Illustrator CS6 (Windows)</stEvt:softwareAgent>
                  <stEvt:changed>/</stEvt:changed>
               </rdf:li>
               <rdf:li rdf:parseType="Resource">
                  <stEvt:action>saved</stEvt:action>
                  <stEvt:instanceID>xmp.iid:ED200ABD486CE711A4BAA3D71CA81245</stEvt:instanceID>
                  <stEvt:when>2017-07-19T11:40:01+05:30</stEvt:when>
                  <stEvt:softwareAgent>Adobe Illustrator CS6 (Windows)</stEvt:softwareAgent>
                  <stEvt:changed>/</stEvt:changed>
               </rdf:li>
            </rdf:Seq>
         </xmpMM:History>
      </rdf:Description>
      <rdf:Description rdf:about=""
            xmlns:xmp="http://ns.adobe.com/xap/1.0/"
            xmlns:xmpGImg="http://ns.adobe.com/xap/1.0/g/img/">
         <xmp:CreateDate>2017-07-19T11:40+05:30</xmp:CreateDate>
         <xmp:CreatorTool>Adobe Illustrator CS6 (Windows)</xmp:CreatorTool>
         <xmp:ModifyDate>2017-07-19T11:40:01+05:30</xmp:ModifyDate>
         <xmp:MetadataDate>2017-07-19T11:40:01+05:30</xmp:MetadataDate>
         <xmp:Thumbnails>
            <rdf:Alt>
               <rdf:li rdf:parseType="Resource">
                  <xmpGImg:width>256</xmpGImg:width>
                  <xmpGImg:height>252</xmpGImg:height>
                  <xmpGImg:format>JPEG</xmpGImg:format>
                  <xmpGImg:image>/9j/4AAQSkZJRgABAgEASABIAAD/7QAsUGhvdG9zaG9wIDMuMAA4QklNA+0AAAAAABAASAAAAAEA&#xA;AQBIAAAAAQAB/+4ADkFkb2JlAGTAAAAAAf/bAIQABgQEBAUEBgUFBgkGBQYJCwgGBggLDAoKCwoK&#xA;DBAMDAwMDAwQDA4PEA8ODBMTFBQTExwbGxscHx8fHx8fHx8fHwEHBwcNDA0YEBAYGhURFRofHx8f&#xA;Hx8fHx8fHx8fHx8fHx8fHx8fHx8fHx8fHx8fHx8fHx8fHx8fHx8fHx8fHx8f/8AAEQgA/AEAAwER&#xA;AAIRAQMRAf/EAaIAAAAHAQEBAQEAAAAAAAAAAAQFAwIGAQAHCAkKCwEAAgIDAQEBAQEAAAAAAAAA&#xA;AQACAwQFBgcICQoLEAACAQMDAgQCBgcDBAIGAnMBAgMRBAAFIRIxQVEGE2EicYEUMpGhBxWxQiPB&#xA;UtHhMxZi8CRygvElQzRTkqKyY3PCNUQnk6OzNhdUZHTD0uIIJoMJChgZhJRFRqS0VtNVKBry4/PE&#xA;1OT0ZXWFlaW1xdXl9WZ2hpamtsbW5vY3R1dnd4eXp7fH1+f3OEhYaHiImKi4yNjo+Ck5SVlpeYmZ&#xA;qbnJ2en5KjpKWmp6ipqqusra6voRAAICAQIDBQUEBQYECAMDbQEAAhEDBCESMUEFURNhIgZxgZEy&#xA;obHwFMHR4SNCFVJicvEzJDRDghaSUyWiY7LCB3PSNeJEgxdUkwgJChgZJjZFGidkdFU38qOzwygp&#xA;0+PzhJSktMTU5PRldYWVpbXF1eX1RlZmdoaWprbG1ub2R1dnd4eXp7fH1+f3OEhYaHiImKi4yNjo&#xA;+DlJWWl5iZmpucnZ6fkqOkpaanqKmqq6ytrq+v/aAAwDAQACEQMRAD8A9U4q7FXYq7FXYq7FXYq7&#xA;FXYqxzzd+Y3kbyhCZfMetWunNx5Lbu/Kdx4pAnKV/wDYrirxLzX/AM5reVLRmh8s6Jdaq42Fzdut&#xA;pDXxVQJpGHzC4q8o8wf85e/m9qZZbCWy0WI7L9Ut1kenu1yZ9/cAYqwPVPzj/NbVGJvPNmqFW3aO&#xA;K6lgjPQ/YiKJ28MVY5c65rV0SbnULmcleJMk0j/D4fETtviqBxVMbXzH5htH9S11S7t3qDzinlQ1&#xA;G4NVYdMVZNpP52/m3pRX6n5s1Iqv2UuJ2uUHagW49VafRirP/L//ADmN+aunlV1SOw1qMU5tND6E&#xA;pp4NbmNB/wABir1nyp/zmh5C1Bli8xabd6FK3WeOl7bjxJZAk33RHFXtnlnzp5T802n1vy9q1rqc&#xA;IAL/AFeRWdK9BJH9tD7MBiqc4q7FXYq7FXYq7FXYq7FXYq7FXYq7FXYq7FXYq7FXYq7FXYqwb8x/&#xA;zo8g/l9DTXL7nqLLyh0m1Alu3B6HhUBFPZpCo8MVfKn5hf8AOWf5i+ZDJa6Ew8s6Y1QBasWvGU/z&#xA;XJAK/wDPNVPucVeKXNzcXU8lxcyvPcSsWlmkYu7MepZmqScVUsVdirItH/Lrz/rKq+leXNTvY26T&#xA;Q2kzR+O8gXgPvxVlNn/zjb+d12AYvK061qf301rB02/3bKmKor/oVz89v+pZ/wCn7T/+yjFUHe/8&#xA;45fnZZ19byrcNx2PoSW8/UV29GR64qxTWfIXnfRAzav5f1HT0UVMlzazRpTpXmyhafTiqQ4q7FUT&#xA;p2pajpl5FfaddTWV5CeUNzbu0UiHxV0IYYq94/Ln/nMDznojRWfm2EeYdNWim6HGK+RRtXkAI5aD&#xA;+cAnu2KvqfyB+aXknz5YfWvLmopPIgrcWMn7u6h/4yRE1p/lCqnscVZZirsVdirsVdirsVdirsVd&#xA;irsVdirsVdirsVdiqje3tnY2k15ezx21pbo0lxcTMEjjRRVmdmICgDqTir5S/OT/AJy6uLhp9E/L&#xA;smC33jm8wyLSR+x+qxsPgH+W45eAGxxV8yXd3dXlzLdXc0lxdTsXmnlYvI7salmZiSxPicVUcVek&#xA;/l//AM4+fmd52WO5sdNNhpclCup6jyt4WU/tRggySj3RCPfFX0J5O/5ww8j6eqS+aNRudcudi0EP&#xA;+h23uCELTN8xIvyxV7J5b/LfyF5aVP0FoFjYSJSk8cCGfbpWZg0h+lsVZHirsVdirsVdirFPMv5U&#xA;flv5mVv035csbqR/tXAiEU//ACPi9OX/AIbFXjPnP/nCzyveK8/lLVp9KuNytpeD6zbnwVXHCVB7&#xA;nnir558//kf+ZHkXnNrWltJpyH/jq2ZM9rStAWdQGjr/AMWKpxVgWKozSdX1TSNQh1HSruWxv7du&#xA;cFzA7RyKfZlIOKvqz8mv+cuLa9aDQ/zCZLW6akcHmBAEhcnYfWkG0Z/y1+HxC9cVfTUUsUsSSxOs&#xA;kUiho5FIZWVhUEEbEEYquxV2KuxV2KuxV2KuxV2KuxV2KuxV2KpV5o806D5W0O51vXbtLLTbReUs&#xA;z7kk7KiKN2Zjsqjc4q+Fvzs/P3zF+Y189nAX07yrC/8AoumK1DLxNVluSPtv0IX7K9t6sVXlOKsw&#xA;/Ln8qPOn5g6ibTy/ZFreJgLvUZqpawV3/eSUPxeCqC3tir7E/K7/AJxk8g+S1hvb+JfMGvpQm9u0&#xA;Bhjbr+4tzyRadmbk3gRir2DFXYq7FXYq7FXYq7FXYq7FXYq06I6MjqGRgQykVBB2IIOKvD/zS/5x&#xA;T8k+allv/LoTy5rjVYeiv+hSt1/eQL9gn+aOnurYq+QPPX5eebfI2rtpfmOwe1lNTbzj4oJ0H7cM&#xA;o+FxuPcdwDirG8Ve0/kX/wA5G615Dni0bW2k1Lyi7U9L7U9nX9u3JO6fzRnbutDWqr7f0fWNL1nS&#xA;7bVdKuY7zTryMS21zEao6HuP1EHcHY4qjMVdirsVdirsVdirsVdirsVdiqX+YNf0jy9ot5rWsXK2&#xA;mm2MZluJ36BR2A6szHZVG5Ow3xV8B/nX+c+tfmT5gaVme28vWbsNJ0ytAq9PWlAJDSuOv8vQdyVX&#xA;m+Kvc/yI/wCca9T88GHzB5j9TT/KgblEo+Ge9p2ir9iLxk79F8Qq+0tC0DRtA0qDSdGs4rDTrZeM&#xA;NtCvFQO58Sx6ljuT1xVH4q7FXYq7FXYq7FXYq7FXYq7FXYq7FXYqlHmryl5d816NNo3mCxjv9Pn+&#xA;1FIN1bs8bijI4rsykHFXxB+eP/OPeu/l3cvqdgZNT8pzPSK+41ktixosd0FFB1osg+FvYmmKvIcV&#xA;eu/kJ+fOp/l1qq6fqDPd+Ub2QG8tN2a3ZtjcQDxH7a/tD3ocVfd+najY6lYW+oWE6XNldxrNbXEZ&#xA;5I8bjkrKR2IOKojFXYq7FXYq7FXYq7FXYq4kKCSaAbknoBir4Y/5yW/O6Tzxrx0HRZz/AIU0qQhG&#xA;Qnjd3C/C058UXcR+1W77KvEsVfQv/ON3/OO3+KpIfN3muEr5biethp7gg3roftv/AMUKf+DO3StV&#xA;X2bHHHFGscahI0AVEUAKqgUAAHQDFV2KuxV2KuxV2KuxV2KuxV2KuxV2KuxV2KuxV2KqF9Y2V/ZT&#xA;2N9AlzZ3KNFcW8qh0dHFGVlOxBGKvhz/AJyF/wCcf7ryBenXNEV7jyheScUrVpLKV9xDIepQ/sOf&#xA;9Vt6FlXiuKvon/nFb8728v6pH5I8wXFNC1CSmlXEh+G1upD/AHZJ6RTMf9i+/wC0xxV9l4q7FXYq&#xA;7FXYq7FXYq7FXz5/zln+breXfL6+TdInKazrcZa+lQ0aCxJKkezTkFf9UN4jFXxdir1z/nHf8l5f&#xA;zE8ym61FGTytpLK+oybj15Dulqh/yurkdF8CVxV96W1tb2tvFbW0Sw28CLHDDGAqIiDiqqo2AAFA&#xA;MVVMVdirsVdirsVdirG/On5jeSvJVkLvzLqsNgrisMDEvPL2/dwoGkffuFoO+KvC/MX/ADm55ft5&#xA;mi8veXLm/jBoLi9nS1B9xGi3BI+bDFWMp/zm/wCZw6l/LNkUqOQE8oJHehINPuxVmPlb/nNXydez&#xA;JD5j0W60flQG5gdb2FT/ADMAsMgH+qjHFXvHlvzX5b8z6ampaBqMGpWT/wC7bdw3E9eLr9pG/wAl&#xA;gDiqa4q7FXYq7FXYq7FUJq2k6bq+mXWl6nbpd6feRtDc28gqro4oQf6jFX59/nj+Ul9+W/m57Ec5&#xA;tCvuU2jXjdWiBHKJyNvUiLAN4ijbVpirzsEg1GxGKvu//nGX83G88+TjpuqTc/MmhKkN2zH4p7ci&#xA;kNxv1bbi/uKn7WKvZMVdirsVdirsVdiqX+Ydd07QNCv9b1KT0rDToHubh+/GNeVFHdj0A7nFX5se&#xA;ePN+qecPNepeY9Tat1qExk4VqI4x8McS/wCTGgCj5YqhvLHlzVPMvmCw0HSo/V1DUZlggU7AFurM&#xA;eyqtWY9gMVfo9+X3kfSfJHlKw8uaWtYbNP305FGmmbeWZ/d239ht0GKsixV2KuxV2KuxV2KvEP8A&#xA;nIL/AJyItvIMZ0DQBHd+bJ4+Ts1GiskcfC8g/akbqieHxNtQMq+KNa1zWNc1OfVNYvJb/ULluU1z&#xA;Oxd2PhU9AOwGw7YqgcVdirsVT7yZ5580eTNZj1fy7fSWV2lBIqmsUqD/AHXNGfhdD4H5ih3xV94f&#xA;kr+dGjfmZoLTxqtlr1kFXVNM5V4k9Joq7tE56d1Ox7EqvRsVdirsVdirsVdirC/zd/LbT/zC8lXm&#xA;g3HGO8A9fS7th/c3SA+m1aE8Wrxf/JJ74q/OjUtOvtM1G606/ha3vbOV4LmBxRkkjYq6n5EYqyf8&#xA;pvzBvPIPnrTvMMPJraJvR1G3TrLaSECVPc9GX/KAxV+j1je2l/ZW99ZyrPaXUaT28ybq8cihkZfZ&#xA;lNcVVsVdirsVdirsVfM//OaHn9rPRtM8kWcnGXUz9f1MKd/q8LcYEI/lklBb/YDFXyHir6z/AOcM&#xA;/wAtUisr3z/fxVmuC9jovL9mNTS4mH+s49MHqOLeOKvqHFXYq7FXYq7FXYqxH81/P1t5E8ian5jl&#xA;CvcW6enYQN0kupfhiU+3L4m/yQcVfnJq2q6jq+p3WqalO11f3srT3NxIas8jmrE4qi/K3lbXfNWu&#xA;2uh6Hatd6jdtxjjXoB+07t0VFG7MemKvrv8AL3/nDzyRpVpFcecZH17VCA0tvHJJBZxt/KojKSyU&#xA;PdmAP8oxV6JN+QP5NS2/oP5TsQm+6KyPv/xYjK/44q8g/M//AJw40yS0l1H8vp5ILyMFv0Ldyc4p&#xA;KD7MM7/Ejf8AGQsD/MuKvlC+sbywvJ7G+ge2vLZ2iuLeVSjo6GjKyncEHFU+/Lnz3q3kbzfYeY9N&#xA;Y87VwLm3Bos9uxAlhf2ZengaHqMVfpFomsWGtaPZavp8nq2OoQR3NtJ4xyqHWvgaHcYqjcVdirsV&#xA;dirsVdir5B/5zJ/LVbDWbPz3YR0t9UK2eqqo2W5jT91LUf78jXifdffFXzTir7c/5xC8/tr/AJAl&#xA;8u3cvO/8tyCKLkas1nNVof8AgGV09gFxV7xirsVdirsVdir84/zr85Hzh+Z2u6yknqWZuGttPI+z&#xA;9Wtv3URX/XC8/mcVYpomkXus6zY6RYrzvNRuIrW2TsZJnCLX6WxV+mflXy7YeW/Lem6BYClpplvH&#xA;bRGgBb01ALsB+05qze5xVNMVdirsVdirsVdir5V/5zf8xy18s+Wo2pCfX1K5SvVhSGA09h6v34q+&#xA;VcVfbv8AziP+XNroHkFfNFxGDrHmOsiyEfFHZxsVijB7eoVMhp1qtfs4q93xV2KuxV8nf85nflza&#xA;W0unee7CERvdyCw1jiNnk4FreY078UZGPsuKvlzFX3H/AM4f+ZpNW/Kn9HTvyl0O9mtEBNW9CQLP&#xA;GT7cpXUfLFXuOKuxV2KuxV2KuxVjH5meTLfzn5F1jy3KF531uwtXbolzH+8gev8AkyqtfbFX5rTw&#xA;TQTSQTIY5omKSRsKMrKaEEeIOKvVP+cYvOR8s/m3paSScLHW66XdA9KzkGA/P11QV8CcVffmKuxV&#xA;2KuxViP5u+Zz5Y/LPzHraP6c9tZSLav0pcT/ALmA/wDI2RcVfmzir2//AJxD8qDWfzVXVJU5W2gW&#xA;st3Uio9eX9xEvz/eM4/1cVfcuKuxV2KuxV2KuxV2Kvi7/nNdZf8AlZ2kMa+kdFhCeHIXdzyp9BGK&#xA;vnzFX6V/lW1q35Y+Uja/7z/oaw9PpWgtkFDTv4++KspxV2KuxV47/wA5ZmL/AJUpqfPjyNzZ+lWl&#xA;eXrr9n341+jFXwbir65/5weE36D81k19H6zacPDl6cnKn0ccVfTeKuxV2KuxV2KuxV2Kvz+/5yY8&#xA;qDy5+cOtJGnC11Urqlv2qLqplP8AyPWTFXmNrdXFpdQ3Vs5iuLd1lhkXqroQysPkRir9O/K2uQ6/&#xA;5Z0nXIaCLVLOC7VR29eNX4/RypiqaYq7FXYq8F/5zL1s2X5XWumo1H1XUoY3WtKxQo8zfP41TFXx&#xA;Lir7H/5wn8vi28la5rrpxl1K/W2Rj3itIgQR7c53H0Yq+jcVdirsVdirsVdirsVfLn/ObvlmV7Py&#xA;35miSscDzaddv4eoBNB/xCTFXydir7X/AOcRPzJtNb8kDyhdSgaz5f5ejGx+KWykfkjrXr6TP6Zp&#xA;0HHxxV77irsVdir5J/5zL/Mq1vbqw8h6dKsosJPr2sMhqFnKFYYTTuqOzMPde4xV8w4q+5v+cQvL&#xA;MmkflOuoTJxm1y8mvEJ2b0UC28YPtWJmH+tir27FXYq7FXYq7FXYq7FXyr/znB5fWvlfzDGnxH6x&#xA;p9zJ7DjNCP8Ak7ir5VxV98/84r62dU/JfSI2PKXTZLiykJ/yJWkT7o5VGKvW8VdirsVfKn/Ocd+e&#xA;XlDT1OwF9cSDx/uET/jbFXytir9Av+cY9MWw/JLy4ONJLlbi5kNKVMtzIVP/AAHEYq9SxV2KuxV2&#xA;KuxV2KrZZYoonlldY4o1LSSMQqqqipJJ2AAxV4v+ZH5mfkb568v6r5FuPNlnHd3qFba6ZZhbxXMb&#xA;coZPrPD0KLIorSTda4q+IdY0jUNH1S60vUIjBe2cjRTxnejL3BGzKeqsNiNxiqt5d8x615b1m11r&#xA;RLt7LUrN+cFxH1B6EEGoZWGzKdiNjir6z/L/AP5zL8rXtpFbedrSXStQUASX1pG09o/ixRS00f8A&#xA;qhX+eKvQZP8AnJf8kI4TKfM8TACvFbe7Zj7BRDXFXkH5o/8AOZCT2c2l+QLSWGSVSja5eAKyAihN&#xA;vAC3xeDudv5e+Kvlye4nuJ5J7iRpp5WLyyyMWdmY1LMxqSSe+Kpz5L8sf4j1+Cwluo9P05T6uqan&#xA;OwSG1tVI9SZ2Ygd+KL+05VRucVfdXkn86/yQn/R/lTy75hgU20UdnYW0sVxbqViURxoslxHEjMQA&#xA;BRqnFXpuKuxV2KuxV2KuxV2KvD/+cw9MW7/KA3JWradqNrcBvDmHg8R/v7FXw3ir7G/5wk1EyeSv&#xA;MGnE1FtqS3AHh9YgVPD/AIo8cVfR2KuxV2Kvjv8A5zcn5edPL1vx/u9NeTlXrznYUp7cMVfN+Kv0&#xA;d/JCNI/yh8oqg4g6XbMQPFkDE/STirN8VdirsVdirsVUL+/stPsp76+nS2s7WNpbi4lYKiRoKszM&#xA;egAxV8Nfnz/zkPq/n29m0bRJZLHyfE3FYhVJLwqf7yem/Dusf0nfoq8XxV9EeS/yRuvzS/JS01m2&#xA;lEHmvSJ57LT5pqiO7soeLRwSse8bOyRv2A4H4QOKrwnzB5d1zy7qs2k65Yy6fqNuaS2868W9mHZl&#xA;PZl2PbFUtxV2KuxVkfkb8vvNnnjWF0ry5YvdzVHrzmqwQIT9uaX7KL+J7AnFXo/59fldF+WHlzyx&#xA;oVrKbl9T+sXWsajQqLi5h9NY41X9mOFZDwFd+RJ9lXiuKvpj/nHb/nJe7sLq18oed7szaZKVh0zW&#xA;Z2q9uxNFiuHY/FEeiufsd/h+yq+vMVdirsVdirsVdiry3/nJ+3M/5G+ZlUAsi2kgr24XsDMR/sQc&#xA;Vfn7ir6t/wCcGZZDF50iJ/do2muq7bFhdAn/AIUYq+p8VdirsVfHX/ObkBXzt5enrtJprIF7gpO5&#xA;r/w+KvnDFX6Pfki6P+UXlAqwYDS7YVBrusYBH0EYqzbFXYq7FXYq7FXyl/zmL+as3rw/l5pU3GNV&#xA;S6150O7Fvigtz7AUkbxqvgcVfLGKvX/yL/5x81f8x7g6lqDyab5Ut34y3qqPVuHU/FFbcgV2/acg&#xA;hfAnbFX3H5c8u6P5b0Oz0PRrZbTTbGMRW8K70A3JYndmYklmO5O5xVCebvIvlHzfYfUPMmlwalbi&#xA;vpmVaSRk9TFKvGSM+6sMVeI+Yf8AnCjyTdytJoet32lcqkQzpHeRqe3H+4en+s5PvirHE/5wauPX&#xA;YP5yQQD7LjTiXJ26qbkAf8EcVZh5Y/5w0/LjTZUm1q9vdcdSD6LMLWBqeKxfvP8Akpir27QvL2ha&#xA;Bp0em6JYQadYRfYt7ZFjWvdjx6se5O5xVJ/zG/Ljy1+YHl19D16JjEG9W1uYiFmgmAIEkbEEVoSC&#xA;CCDir4Q/N38nvMn5a64LPUP9K0u5qdN1aNSscyjqrDfhIv7SV9xUb4qwLFX27/zif+a0/mrynL5a&#xA;1ab1da8vqixSuavNZN8MbGvUxH4GPhx7nFXu+KuxV2KuxV2KvL/+cnJ2h/I3zO6gElLRN/CS9gQ/&#xA;g2Kvz7xV9Wf84Mo4Tzq5B4MdMUN2JX62SPo5DFX1RirsVdir5S/5zjsSJ/KF+Bsy30Dnao4mB19z&#xA;Xk2KvljFX6Df8406iL/8kvLT1q0Mc9u48DDcyIP+FAOKvTsVdirsVdiqld3UFpazXU7cILeNpZXP&#xA;QIgLMfoAxV+Y/m3zHeeZfM+qa/eEm41O5luWB34h2JVB7ItFHsMVR35ceS7rzr520nyzbMYzqE3G&#xA;aYCpjgQGSaSh2qsasQO52xV+kWiaLpmh6RZ6RpcC22n2MSwW0CdFRBQfMnqSdyd8VRuKuxV2KuxV&#xA;2KuxV2KsW/M3yBpfnzybf+Xb9VDToXsrkjeC6QExSjvs2zU6rUd8Vfm7qWn3mm6jdadexmG8sppL&#xA;e5iPVJYmKOp+TKRirPP+cfPNkvln82/L92H4217cDTrxa0VorwiL4vZHZX/2OKv0PxV2KuxV2Kux&#xA;V4p/zl9fpa/k5PAxAN9f2luoPcqWnoN/CHFXwtir7D/5wisCnk/zHqHHa41CO3Db7+hAHp4bevir&#xA;6RxV2KuxV4F/zmdozXf5Y2OootW0zU4mkPhFPHJGf+H4Yq+KMVfZ3/OFevLd/l/q2jMay6XqJlUe&#xA;EV1EpX/h4pMVfQ2KuxV2KuxVhv5y37WP5UebrhW4ONKu41bfYyxNGKU71fbFX5u4q+iP+cKdLgn/&#xA;ADA1nUZBWSy0wpCD2aeZKsPfjGR9OKvszFXYq7FXYq7FXYq7FXYq7FX5+f8AOTWlQ6b+dnmNIABH&#xA;cvBd0H889vG8lfnIWOKvNbK6ktLyC7i/vLeRJU3p8SMGG/0Yq/U3FXYq7FXYq7FXy7/zm/rwWw8s&#xA;aAjVMstxfzJ4CJViiP0+pJir5NxV95/84naK2m/kxps7LxfVLi6vWHQ0MpgUn5pAD8sVew4q7FXY&#xA;qwr86fLZ8x/lX5m0lV5yyWMk9ug6ma1pcRAfN4gMVfnBir3r/nDjzWNK/Mu40OV+MGv2bxxr0BuL&#xA;Ws0f/JP1R9OKvtrFXYq7FXYqwD8/v/JNebP+YFv+JLir86sVfSv/ADhD/wApV5l/5gYf+T2Kvr/F&#xA;XYq7FXYq7FXYq7FXYq7FXwX/AM5Yf+Tt1j/jBZ/9Q0eKvH8VfqXpbM2mWjMSzNDGWY7kkoNziqJx&#xA;V2KuxV2Kvgn/AJyn81rr/wCcGpQxPztdEjj0yEjpyiq823iJpHX6MVeSRRSSyJFEpeSRgqIoqSxN&#xA;AAPfFX6beSPLy+XPJ2iaCKV0yxt7WRl6NJFGFdv9k9Tiqd4q7FXYq4gEUO4PUYq/Nn82fKDeUPzF&#xA;17QAnC3tbp2sx2+rTfvYP+SbqD74qk3lbzBeeXPMmma9Z/706ZdRXUanYMYnDcD7MBQ+2Kv0z0bV&#xA;7HWdIstWsJPVstQgjubaTxjlUOp29jiqMxV2KuxVgH5/f+Sa82f8wLf8SXFX51Yq+lf+cIf+Uq8y&#xA;/wDMDD/yexV9f4q7FXYq7FXYq7FXYq7FXYq+C/8AnLD/AMnbrH/GCz/6ho8VeP4q/UrSf+OVZf8A&#xA;GCL/AIgMVRWKuxV2KpH5481WnlPyhq/mO7p6WmWzzqh25yAUij7bySFVHzxV+Z9/fXV/fXN9dyGW&#xA;6u5XnuJT1aSRizsfmxxV6H/zjp5PbzT+beiW7pzs9Ok/Sd7XcCO0IdAR3DTemh+eKv0JxV2KuxV2&#xA;KuxV8r/85qeQyV0jzxax/Z/3GamR4HlJbuf+HUn/AFRir5TxV9jf84cfmQup+W7ryRfTcr/Ry1zp&#xA;oY7tZSMOajx9KVvuYDtir6OxV2KuxVgn57W8k/5PebUjFWGnSyH/AFY6O3/CqcVfnNir37/nD7zd&#xA;5b0DzjrMOt6jBpo1CyRLWa6kWGJnjlBKeo5ChiDsCd8VfW3/ACsPyB/1M2lf9J1t/wA14q7/AJWH&#xA;5A/6mbSv+k62/wCa8Vd/ysPyB/1M2lf9J1t/zXirv+Vh+QP+pm0r/pOtv+a8Vd/ysPyB/wBTNpX/&#xA;AEnW3/NeKu/5WH5A/wCpm0r/AKTrb/mvFXf8rD8gf9TNpX/Sdbf814q7/lYfkD/qZtK/6Trb/mvF&#xA;Xf8AKw/IH/UzaV/0nW3/ADXir4X/AOcjvMuieY/zd1nUtFukvdPpbwJdxHlFI0MCI5jYfaUMCAw2&#xA;PUbb4q81RHd1RFLOxAVQKkk9ABir9TbSD6vaw2/Ll6Max8qUrxAFab4qq4q7FXYq+VP+czvzIUmw&#xA;8gWEoJUrf6zxPQ0P1aE/QTIR/qHFXytir7L/AOcNPIbaX5PvvN13Hxutek9GyJ6i0tmKlh4epNyr&#xA;7KpxV9E4q7FXYq7FXYqknnXypp3m3ypqflzUR/oupQNCXpUxv9qOVR/NG4DD3GKvzY8x6Bqfl7Xb&#xA;7Q9Ui9G/06Z7e4TtyQ0qp7qw3U9xiqN8h+ctU8mebdO8yaYa3FhKHaImiyxN8MsTf5LoSv44q/R/&#xA;yp5n0nzT5dsPMGky+tYajEJYW2qpOzI1OjIwKsOxGKptirsVQ2p6daanpt3pt4nqWd7DJb3MfTlH&#xA;KpR1+lWxV+bX5j+Q9W8jeb7/AMu6kjA2zk2lwRRZ7difSmQ9CGXrTo1R1GKsZxV2KuxV2KuxV2Ku&#xA;xV2KuxV2KuxV6j/zjx+WV953/MGxZoWOh6PLHe6rcEfBxjblHDX+aVlpT+Wp7Yq/QPFXYq7FWNfm&#xA;L570nyN5Qv8AzHqRBjtUpb29aNPcPtFCvuzdfAVPQYq/OHzFr+p+Yddvtb1SX1tQ1GZ57iTtyc1o&#xA;o3oqjZR2GKpj+X3kvUPOnnHTPLdiCJL6YLNMBURQL8Usp9kQE/hir9JtG0mw0fSbPSdPiENjYQx2&#xA;9tEP2Y4lCqPuGKozFXYq7FXYq7FXYq+Y/wDnL/8AKRr2zT8wtIg5XNmiwa9Gg3eAUWK4oOpj+w/+&#xA;TTspxV8j4q91/wCcYvzuTyXrR8ta9Pw8satICk7n4bO6aiiUk9I5Nlk8Nm7Gqr7fBBFRuD0OKuxV&#xA;2KsP/Mv8qfKP5iaQun6/bn1oORsdQhIW4t2bqUYggqafErAg/OhxV82a3/zhJ5yjumGh6/p11aEn&#xA;g16J7aQDsCsUdyp+/FUkb/nDX82wxAn0lgDQMLmWh9xWEHFWv+hNvzc/39pX/STL/wBUcVd/0Jt+&#xA;bn+/tK/6SZf+qOKu/wChNvzc/wB/aV/0ky/9UcVd/wBCbfm5/v7Sv+kmX/qjirv+hNvzc/39pX/S&#xA;TL/1RxV3/Qm35uf7+0r/AKSZf+qOKu/6E2/Nz/f2lf8ASTL/ANUcVbH/ADhr+bZIBn0kA9zcy0H3&#xA;Q4qynyr/AM4Sau10j+bPMFvFaqavb6WryyOPASzpEE+fptir6a8n+TPLfk/Q4dE8v2a2dhD8RUbv&#xA;I5ADSSufid2puT8umKp3irsVU7i4gtreW5uJFht4UaSaZyFREQVZmY7AACpOKvgv/nIn855PzD8z&#xA;i102Rl8raSzJpyGq+vJ0e6df8rogPRfAlsVeR4q+1v8AnE38pW8teWW83arDw1rXox9UjcUaCxry&#xA;Tr0aYgOf8nj74q9+xV2KuxV2KuxV2KuxVTura3u7aW1uYlmtp0aKeFwGR0ccWVgdiCDQ4q+Avz//&#xA;ACbuvy581M1mjyeWNSZpNJuTVvTPVraRv54/2a/aWh61oq8sxV9T/wDOMv8AzkQkK23kXzhdKkKg&#xA;RaFqszU49ltZnPbtGx6fZ/lxV9W4q7FXYq7FXYq7FXYq7FXYq7FXYq7FXYq7FXYq7FWmZVUsxCqo&#xA;qzHYADucVfGn/OSX/ORK+aDN5P8AKU5Hl6NuOp6gu3110aoSM9fQUitf2z/k/aVfO+KvbP8AnGj8&#xA;lH88eYRrusQE+VdIlUyq4+G7uVoy24r1Rdmk9qD9rFX3QAFAAFANgB0AxV2KuxV2KuxV2KuxV2Ku&#xA;xVIvO/kvQvOflq78v63D61ldLsw2eKRd0ljb9l0PT7jsSMVfnz+aX5YeYPy78zy6Lqq+rC9ZNP1B&#xA;FIiuYa7OtejDo61+E+IoSqw7FX0t+QX/ADlE+jx23lXz1M0ulIFi07WjVpLdRssdx1LxDs/VehqP&#xA;sqvrm1urW7torq0mS4tp1EkM8TB43RhVWVlJDAjoRiqrirsVdirsVdirsVdirsVdirsVdirsVdiq&#xA;F1TVNN0rT59R1O5js7C1QyXFzMwSNFHdmO2KvjP8/P8AnJi883ify35TeSz8sH4Lq83jnvRuCvYp&#xA;Af5erftbfDirwHFXYq+/f+cdfzG8leZ/I9npOg20ek3ujQrFeaIpqU8Zoy3xSJIxJLHfkfi33Kr1&#xA;fFXYq7FXYq7FXYq7FXYq7FXYqxr8wPy98s+e/L8uia/bCWFqtbXC0E1vLSglhf8AZYfcehBGKvgv&#xA;81/yf80/lvrP1TVI/rGmTsf0dq0akQzqBWnfhIP2kP0VG+KsExV6Z+U35+edPy6mW3tpP0loDNWb&#xA;Rrlm9MVNWaB9zC59gVPdTir7K/LT87fIX5gwKukXvoaqFrNpF1SO5WgqSq1pIo/mQn3pirPsVdir&#xA;sVdirsVdirsVdirsVdirsVeZ/mj/AM5BeQfy/jltri4Gqa8o+DRrNg0it/xfJukI/wBb4vBTir40&#xA;/NH86POn5i33PV7j6vpcTcrTSLclbePsGI6yP/lt9FBtirAsVZ1+X35L+f8Az7ZX99oFiGs7GN2N&#xA;xO3pRzSqAfq8LEUaU19lH7RG2KsKurW5tLmW1uonguYHaOeCRSjo6GjKymhBBFCDiqY+VvNOu+Vd&#xA;dtdc0O6a01G0blHIvQj9pHXoyMNmU9cVffP5L/nRoX5laF6sXG01+0UDVNLJ3Q9PViru0THof2eh&#xA;7EqvRcVdirsVdirsVdirsVdirsVdiqXeYfLmh+Y9IuNH1uzjvtOul4zW8oqD4EHqrDqGG47Yq+N/&#xA;zl/5xX8xeVWn1nyksuteXhV5LYDleWqjc8lUfvUH8yio7ig5Yq8FIINDsRiq6GaaCVJoXaKaNg0c&#xA;iEqysDUFSNwRir2z8v8A/nLT8xvLSxWmtFPMumpRaXbFLtVH8tyoYt/z0Vj74q+g/J3/ADlX+U3m&#xA;FY4ry9k0C9agMOopxj5U3pcJzi4+7lflir1nTtU0zU7VbvTbuG9tX+xcW0iSxn5OhYYqicVdirsV&#xA;dirsVQOr67omjWpu9Y1C2061HWe7mSBNv8qQqMVeQ+cv+ct/ys0ISQ6VJP5ivVqFSzT04OX+VPLx&#xA;FPeNXxV88fmF/wA5R/mZ5tSWztJ18vaVJUG208sszKe0lyf3h8Dw4g9xirx8kkkk1J3JPWuKtxxy&#xA;SyLHGpeRyFRFBLFiaAADqTir6P8Aya/5xL1XV2g1vz8kmnaVs8OiglLuYdR656wp/k/b/wBXrir6&#xA;50vS9N0rT4NO0y2js7C1QR29tCoSNFHZVG2KvFf+ch/+ceLbzvbS+ZPLcSQebYErLEKIl+iDZHOw&#xA;EwAojnr9ltqFVXxJdWtzaXMtrdRPBcwO0c8EilHR0NGVlNCCCKEHFUx8readd8q67a65od01pqNo&#xA;3KORehH7SOvRkYbMp64q++fyX/OjQvzK0L1YuNpr9ooGqaWTuh6erFXdomPQ/s9D2JVei4q7FXYq&#xA;7FXYq7FXYq7FXYq7FXYq8l/NP/nGvyF56aW/hj/QfmBwSdRtEXhK573EHwrJv1YFWPdsVfJ35h/8&#xA;4+/mV5HaWe9046hpEe41WwrNCF8ZFAEkXvzUDwJxV5tirsVRmmaxq+lXH1nS764sLkdJrWV4X/4J&#xA;CpxVnmj/APORf50aSqrb+aLmdF243ixXZIrXdrhJH+mtcVZRa/8AOYf5wQKBKdNuiKfFLakE0/4x&#xA;SRjfFUw/6HV/NP8A6tWh/wDSPef9leKpbd/85gfnFOnGKTT7U7/HDa1O/wDxleQbfLFWKa1/zkF+&#xA;cusBhdearyFW/Zs+FnQeANssR/HFWCX2o6hqFy11f3Mt3cv9ued2lkPzZyScVQ+KtgEmg3JxV6t+&#xA;XX/ONX5leczFcvZ/oTRpKN+kdQVkLIe8UH95JUbg0Cn+bFX1l+V//OP/AJB/L9Y7q0t/0lrqj49Y&#xA;vAGlUkb+gn2IR1+z8VNixxV6XirsVdirwv8A5yH/AOceLbzvbS+ZPLcSQebYErLEKIl+iDZHOwEw&#xA;Aojnr9ltqFVXxJdWtzaXMtrdRPBcwO0c8EilHR0NGVlNCCCKEHFUx8readd8q67a65od01pqNo3K&#xA;ORehH7SOvRkYbMp64q++fyX/ADo0L8ytC9WLjaa/aKBqmlk7oenqxV3aJj0P7PQ9iVXouKuxV2Ku&#xA;xV2KuxV2KuxV2KuxV2KuxV5152/5x+/Krze0k2oaMlnfyVJ1DTz9VmJPVm4D05D7ujYq8P8ANX/O&#xA;Emqxl5fKvmGG5TcpaalG0LgeHrQiRWP/ADzXFXlOv/8AOOn5y6Izev5auLuIfZlsCl4GA7hIGeT7&#xA;1BxVgupaDrmlvw1PTrmxetONzDJCa+FHC4qgMVdirsVTHS/LnmHV2C6Vpd3qDE0C2sEsxJ8P3at4&#xA;Yqz3y/8A842/nNrZVo/LstjC3WbUHS04/OOQiX7kxV6v5U/5wjumKS+bPMSRr+3aaXGXY/K4nCgf&#xA;8ijir3TyR+R/5ZeTDHNo2ixNfx7jUrv/AEm55fzK8lfTP/GMLirO8VdirsVdirsVdirwv/nIf/nH&#xA;i28720vmTy3EkHm2BKyxCiJfog2RzsBMAKI56/ZbahVV8SXVrc2lzLa3UTwXMDtHPBIpR0dDRlZT&#xA;QggihBxVMfK3mnXfKuu2uuaHdNaajaNyjkXoR+0jr0ZGGzKeuKvvn8l/zo0L8ytC9WLjaa/aKBqm&#xA;lk7oenqxV3aJj0P7PQ9iVXouKuxV2KuxV2KuxV2KuxV2KuxV2KuxV2KuxVxAYEEVB2IPQjFUqu/K&#xA;XlW85fW9GsbjnTn6ttC9adK8lPSmKoT/AJV55A/6lnSv+kG2/wCaMVRlr5V8r2fH6po9jb8QQvpW&#xA;0KUB6gcVGKppirsVdirsVdirsVdirsVdirsVdirwv/nIf/nHi28720vmTy3EkHm2BKyxCiJfog2R&#xA;zsBMAKI56/ZbahVV8SXVrc2lzLa3UTwXMDtHPBIpR0dDRlZTQggihBxVMfK3mnXfKuu2uuaHdNaa&#xA;jaNyjkXoR+0jr0ZGGzKeuKvvn8l/zo0L8ytC9WLjaa/aKBqmlk7oenqxV3aJj0P7PQ9iVXouKuxV&#xA;2KuxV2KuxV2KuxV2KuxV2KuxV2KuxV2KuxV2KuxV2KuxV2KuxV2KuxV2KuxV2KuxV2KvC/8AnIf/&#xA;AJx4tvO9tL5k8txJB5tgSssQoiX6INkc7ATACiOev2W2oVVfEl1a3Npcy2t1E8FzA7RzwSKUdHQ0&#xA;ZWU0IIIoQcVTHyt5p13yrrtrrmh3TWmo2jco5F6EftI69GRhsynrir79/Jb84NJ/Mvy019DH9V1i&#xA;x4Ravp9SRHI4PF4yescnE8e4oQelSq9BxV2KuxV2KuxV2KuxV2KuxV2KuxV2KuxV2KuxV2KuxV2K&#xA;uxV2KuxV2KuxV2KuxV2KuxV2KuxV4X/zkP8A848W3ne2l8yeW4kg82wJWWIURL9EGyOdgJgBRHPX&#xA;7LbUKqviS6tbm0uZbW6ieC5gdo54JFKOjoaMrKaEEEUIOKvp/wD5wk8t6wl/5g8xvG8ekSQR2MLs&#xA;CEmn9T1G4+PpKtD/AK2KvrDFXYq7FXYq7FXYq7FXYq7FXYq7FXYq7FXYq7FXYq7FXYq7FXYq7FXY&#xA;q7FXYq7FXYq7FXYq7FXYq8w/ML/oXj9PJ/jf9B/p34eX1r0/rFP2fW4/Fx8PU2xV6DoX6C/RFr+g&#xA;fqv6H9MfUfqHp/VvT7el6X7vj/q4q//Z</xmpGImg:image>
               </rdf:li>
            </rdf:Alt>
         </xmp:Thumbnails>
      </rdf:Description>
      <rdf:Description rdf:about=""
            xmlns:pdf="http://ns.adobe.com/pdf/1.3/">
         <pdf:Producer>Adobe PDF library 10.01</pdf:Producer>
      </rdf:Description>
      <rdf:Description rdf:about=""
            xmlns:dc="http://purl.org/dc/elements/1.1/">
         <dc:format>image/svg+xml</dc:format>
      </rdf:Description>
      <rdf:Description rdf:about=""
            xmlns:xmpTPg="http://ns.adobe.com/xap/1.0/t/pg/"
            xmlns:stDim="http://ns.adobe.com/xap/1.0/sType/Dimensions#"
            xmlns:xmpG="http://ns.adobe.com/xap/1.0/g/">
         <xmpTPg:MaxPageSize rdf:parseType="Resource">
            <stDim:w>50.000000</stDim:w>
            <stDim:h>50.000000</stDim:h>
            <stDim:unit>Pixels</stDim:unit>
         </xmpTPg:MaxPageSize>
         <xmpTPg:NPages>1</xmpTPg:NPages>
         <xmpTPg:HasVisibleTransparency>False</xmpTPg:HasVisibleTransparency>
         <xmpTPg:HasVisibleOverprint>False</xmpTPg:HasVisibleOverprint>
         <xmpTPg:PlateNames>
            <rdf:Seq>
               <rdf:li>Cyan</rdf:li>
               <rdf:li>Magenta</rdf:li>
               <rdf:li>Yellow</rdf:li>
               <rdf:li>Black</rdf:li>
            </rdf:Seq>
         </xmpTPg:PlateNames>
         <xmpTPg:SwatchGroups>
            <rdf:Seq>
               <rdf:li rdf:parseType="Resource">
                  <xmpG:groupName>Default Swatch Group</xmpG:groupName>
                  <xmpG:groupType>0</xmpG:groupType>
               </rdf:li>
            </rdf:Seq>
         </xmpTPg:SwatchGroups>
      </rdf:Description>
   </rdf:RDF>
</x:xmpmeta>
                                                                                                    
                                                                                                    
                                                                                                    
                                                                                                    
                                                                                                    
                                                                                                    
                                                                                                    
                                                                                                    
                                                                                                    
                                                                                                    
                                                                                                    
                                                                                                    
                                                                                                    
                                                                                                    
                                                                                                    
                                                                                                    
                                                                                                    
                                                                                                    
                                                                                                    
                                                                                                    
                           
<?xpacket end="w"?>
	</metadata>
<g id="Layer_1_1_">
	<g>
		<g>
			<g>
				<path stroke="#000000" stroke-miterlimit="10" d="M34.77,11.184c0.373,0.374,0.729,0.763,1.067,1.168
					c0.321,0.384,0.552,0.689,0.873,1.156c0.578,0.837,1.077,1.728,1.496,2.653c0.051,0.11,0.099,0.221,0.146,0.331
					c0.08,0.184-0.05-0.122,0.026,0.063c0.022,0.056,0.045,0.111,0.067,0.167c0.098,0.241,0.187,0.485,0.272,0.731
					c0.164,0.47,0.304,0.948,0.427,1.431c0.123,0.48,0.224,0.967,0.303,1.457c0.02,0.117,0.037,0.234,0.055,0.352
					c0.008,0.059,0.018,0.118,0.023,0.176c-0.021-0.148,0.006,0.047,0.009,0.064c0.03,0.255,0.054,0.511,0.073,0.767
					c0.072,0.985,0.058,1.977-0.037,2.96c-0.012,0.119-0.023,0.236-0.036,0.354c-0.007,0.059-0.017,0.117-0.021,0.176
					c-0.004,0.013-0.029,0.207-0.01,0.069c-0.037,0.255-0.08,0.509-0.126,0.763c-0.092,0.487-0.206,0.972-0.338,1.449
					c-0.134,0.481-0.289,0.956-0.464,1.424c-0.186,0.496-0.307,0.775-0.551,1.287c-0.441,0.92-0.971,1.797-1.566,2.623
					c-0.072,0.102-0.146,0.2-0.221,0.299c0.074-0.101-0.051,0.063-0.053,0.066c-0.039,0.051-0.078,0.098-0.117,0.146
					c-0.168,0.213-0.344,0.42-0.522,0.625c-0.349,0.398-0.718,0.779-1.101,1.146c-0.381,0.362-0.777,0.706-1.188,1.032
					c-0.159,0.129,0.099-0.074-0.063,0.051c-0.051,0.038-0.101,0.076-0.149,0.113c-0.099,0.074-0.198,0.146-0.3,0.22
					c-0.215,0.157-0.438,0.308-0.661,0.453c-0.849,0.555-1.749,1.028-2.683,1.425c0.137-0.057-0.047,0.021-0.062,0.026
					c-0.057,0.022-0.112,0.045-0.168,0.065c-0.11,0.045-0.224,0.088-0.337,0.129c-0.242,0.092-0.488,0.174-0.734,0.254
					c-0.475,0.152-0.955,0.281-1.439,0.394c-0.482,0.11-0.971,0.198-1.462,0.269c-0.016,0.002-0.212,0.026-0.063,0.008
					c-0.059,0.009-0.117,0.015-0.176,0.021c-0.119,0.014-0.236,0.025-0.354,0.038c-0.255,0.022-0.512,0.041-0.769,0.056
					c-0.987,0.049-1.977,0.01-2.958-0.106c-0.06-0.007-0.118-0.015-0.177-0.022c-0.195-0.025,0.125,0.02-0.069-0.009
					c-0.118-0.019-0.235-0.036-0.352-0.056c-0.254-0.043-0.507-0.092-0.759-0.146c-0.486-0.103-0.968-0.229-1.443-0.372
					c-0.478-0.145-0.949-0.313-1.413-0.498c-0.056-0.021-0.111-0.045-0.167-0.068c0.122,0.051-0.061-0.025-0.069-0.03
					c-0.111-0.047-0.221-0.097-0.331-0.146c-0.239-0.107-0.475-0.224-0.708-0.344c-0.453-0.229-0.894-0.484-1.324-0.755
					c-0.208-0.132-0.414-0.269-0.616-0.407c-0.102-0.07-0.203-0.142-0.303-0.215c-0.05-0.035-0.1-0.072-0.15-0.109
					c-0.017-0.012-0.207-0.156-0.117-0.086c-0.836-0.642-1.61-1.362-2.317-2.145c-0.169-0.188-0.333-0.377-0.495-0.57
					c-0.08-0.097-0.159-0.193-0.236-0.291c-0.127-0.162,0.075,0.098-0.051-0.063c-0.05-0.065-0.1-0.134-0.15-0.199
					c-0.308-0.411-0.596-0.838-0.866-1.274c-0.267-0.433-0.513-0.877-0.74-1.33c-0.108-0.217-0.211-0.437-0.311-0.656
					c-0.049-0.109-0.097-0.221-0.145-0.331c0.058,0.136-0.019-0.05-0.025-0.063c-0.03-0.074-0.06-0.148-0.089-0.224
					c-0.364-0.929-0.642-1.888-0.84-2.862c-0.048-0.234-0.089-0.469-0.127-0.703c-0.019-0.117-0.036-0.234-0.052-0.352
					c-0.002-0.017-0.028-0.213-0.009-0.064c-0.01-0.078-0.02-0.157-0.028-0.235c-0.056-0.491-0.087-0.984-0.101-1.478
					c-0.055-2.03,0.213-3.804,0.852-5.744c0.075-0.228,0.156-0.454,0.241-0.679c0.042-0.112,0.086-0.224,0.131-0.336
					c0.022-0.055,0.045-0.111,0.068-0.167C7.542,16.62,7.635,16.4,7.644,16.38c0.201-0.463,0.424-0.917,0.664-1.36
					c0.243-0.449,0.509-0.884,0.791-1.31c0.137-0.205,0.279-0.408,0.424-0.607C9.557,13.05,9.593,13,9.63,12.951
					c0.003-0.004,0.126-0.167,0.049-0.067c0.089-0.116,0.18-0.23,0.271-0.343c0.663-0.821,1.404-1.578,2.203-2.266
					c0.722-0.623,1.528-1.195,2.437-1.726c0.438-0.256,0.887-0.489,1.345-0.705c0.109-0.052,0.219-0.102,0.33-0.15
					c0.055-0.025,0.111-0.048,0.166-0.073c0.014-0.006,0.198-0.083,0.062-0.027c0.241-0.101,0.484-0.194,0.728-0.283
					c0.935-0.341,1.9-0.595,2.879-0.771c0.234-0.042,0.469-0.078,0.705-0.11C21,6.403,20.672,6.446,20.868,6.422
					c0.059-0.007,0.118-0.014,0.177-0.021c0.138-0.016,0.275-0.029,0.413-0.041c0.492-0.043,0.986-0.063,1.48-0.065
					c0.494-0.001,0.988,0.02,1.48,0.061c0.235,0.02,0.472,0.045,0.708,0.074c0.059,0.007,0.117,0.015,0.176,0.023
					c-0.137-0.019,0.058,0.008,0.069,0.011c0.138,0.02,0.273,0.042,0.411,0.066c0.842,0.145,1.672,0.356,2.483,0.624
					c0.399,0.132,0.793,0.279,1.182,0.44c-0.061-0.025-0.057-0.023,0.015,0.006c0.056,0.023,0.108,0.048,0.165,0.072
					c0.109,0.048,0.221,0.098,0.33,0.149c0.201,0.093,0.4,0.191,0.6,0.292c0.781,0.4,1.53,0.863,2.243,1.377
					c0.083,0.061,0.167,0.122,0.249,0.184c0.061,0.046,0.066,0.05,0.018,0.013c0.05,0.038,0.1,0.076,0.147,0.114
					c0.181,0.142,0.358,0.288,0.532,0.437C34.102,10.539,34.441,10.856,34.77,11.184c0.25,0.249,0.668,0.245,0.916-0.005
					c0.248-0.251,0.244-0.666-0.004-0.915C32.705,7.3,28.779,5.476,24.604,5.078C20.55,4.69,16.382,5.756,13,8.018
					c-3.524,2.356-6.141,5.936-7.313,10.009c-1.133,3.94-0.846,8.208,0.741,11.981c1.63,3.874,4.673,7.113,8.421,9.012
					c3.663,1.854,7.9,2.379,11.913,1.532c4.09-0.862,7.819-3.225,10.383-6.521c2.543-3.268,3.896-7.352,3.799-11.494
					c-0.101-4.167-1.682-8.192-4.398-11.345c-0.275-0.32-0.564-0.629-0.863-0.928c-0.248-0.25-0.67-0.245-0.916,0.005
					C34.518,10.521,34.521,10.934,34.77,11.184z"/>
			</g>
		</g>
		<g>
			<g>
				<path stroke="#000000" stroke-miterlimit="10" d="M34.77,35.691c1.274,1.272,2.547,2.545,3.821,3.817
					c1.669,1.668,3.337,3.337,5.007,5.005c0.103,0.101,0.203,0.2,0.303,0.301c0.25,0.25,0.668,0.246,0.916-0.004
					c0.248-0.252,0.244-0.666-0.006-0.916c-1.272-1.271-2.547-2.545-3.819-3.817c-1.671-1.667-3.339-3.336-5.007-5.003
					c-0.103-0.102-0.203-0.201-0.303-0.303c-0.25-0.248-0.67-0.246-0.916,0.004C34.518,35.027,34.52,35.441,34.77,35.691
					L34.77,35.691z"/>
			</g>
		</g>
		<g>
			<g>
				<path stroke="#000000" stroke-miterlimit="10" d="M26.456,18.274c-0.001,0.121-0.006,0.241-0.017,0.361
					c-0.004,0.059-0.012,0.119-0.019,0.177c0.017-0.138-0.011,0.054-0.014,0.067c-0.044,0.248-0.116,0.489-0.205,0.724
					c-0.065,0.177,0.054-0.114-0.022,0.059c-0.022,0.052-0.048,0.104-0.072,0.155c-0.051,0.102-0.106,0.201-0.166,0.298
					c-0.057,0.097-0.119,0.19-0.187,0.283c-0.106,0.152,0.08-0.098-0.036,0.048c-0.047,0.059-0.097,0.115-0.146,0.171
					c-0.15,0.168-0.316,0.322-0.491,0.465c0.114-0.093-0.032,0.023-0.048,0.034c-0.045,0.034-0.093,0.065-0.139,0.096
					c-0.11,0.074-0.225,0.14-0.341,0.203c-0.1,0.055-0.204,0.103-0.308,0.148c0.143-0.063-0.033,0.011-0.053,0.018
					c-0.054,0.02-0.108,0.038-0.163,0.056c-0.11,0.036-0.223,0.065-0.335,0.092c-0.057,0.014-0.115,0.025-0.172,0.036
					c-0.025,0.005-0.267,0.04-0.12,0.021c-0.239,0.029-0.48,0.032-0.721,0.021c-0.06-0.003-0.119-0.008-0.179-0.014
					c-0.013-0.001-0.207-0.028-0.069-0.007c-0.135-0.02-0.269-0.05-0.401-0.083c-0.112-0.029-0.222-0.063-0.332-0.102
					c-0.054-0.018-0.108-0.039-0.161-0.06c0.131,0.051-0.043-0.02-0.057-0.026c-0.224-0.103-0.436-0.229-0.639-0.369
					c-0.013-0.009-0.163-0.121-0.049-0.034c-0.045-0.035-0.088-0.071-0.131-0.107c-0.086-0.073-0.168-0.15-0.249-0.229
					c-0.08-0.08-0.155-0.164-0.229-0.249c-0.012-0.013-0.128-0.16-0.039-0.043c-0.046-0.06-0.089-0.121-0.132-0.183
					c-0.129-0.188-0.239-0.387-0.336-0.592c-0.009-0.019-0.082-0.194-0.023-0.05c-0.021-0.053-0.042-0.107-0.061-0.161
					c-0.045-0.126-0.082-0.257-0.115-0.388c-0.028-0.114-0.05-0.229-0.069-0.345c-0.032-0.192,0.013,0.133-0.008-0.063
					c-0.006-0.059-0.01-0.119-0.014-0.179c-0.017-0.26-0.003-0.521,0.028-0.78c-0.017,0.139,0.011-0.053,0.014-0.066
					c0.01-0.058,0.023-0.115,0.036-0.172c0.025-0.113,0.058-0.225,0.092-0.335c0.018-0.055,0.037-0.109,0.056-0.164
					c0.005-0.014,0.076-0.19,0.021-0.06c0.052-0.123,0.112-0.241,0.175-0.358c0.054-0.1,0.114-0.196,0.176-0.291
					c0.031-0.047,0.063-0.093,0.096-0.139c0.108-0.153-0.08,0.098,0.037-0.048c0.152-0.191,0.324-0.366,0.507-0.528
					c0.042-0.037,0.085-0.073,0.129-0.108c-0.114,0.093,0.032-0.023,0.047-0.034c0.091-0.067,0.187-0.128,0.283-0.187
					c0.097-0.06,0.197-0.113,0.298-0.164c0.05-0.026,0.103-0.05,0.155-0.073c0.07-0.031,0.069-0.031-0.002,0
					c0.036-0.014,0.071-0.028,0.107-0.041c0.217-0.082,0.443-0.14,0.67-0.184c0.058-0.011,0.116-0.02,0.174-0.029
					c-0.148,0.022,0.046-0.003,0.064-0.004c0.14-0.013,0.281-0.016,0.421-0.015c0.121,0.001,0.24,0.01,0.36,0.021
					c0.014,0.001,0.207,0.028,0.069,0.007c0.058,0.009,0.116,0.02,0.173,0.031c0.247,0.047,0.487,0.123,0.72,0.214
					c-0.131-0.051,0.043,0.02,0.057,0.026c0.052,0.023,0.103,0.049,0.153,0.075c0.101,0.052,0.2,0.109,0.295,0.168
					c0.097,0.059,0.189,0.124,0.28,0.191c-0.115-0.085,0.033,0.028,0.047,0.039c0.058,0.047,0.114,0.098,0.169,0.148
					c0.084,0.076,0.163,0.157,0.239,0.239c0.039,0.042,0.076,0.084,0.111,0.127c0.013,0.013,0.129,0.16,0.039,0.043
					c0.149,0.194,0.278,0.404,0.394,0.622c0.034,0.067,0.065,0.136,0.098,0.205c0.031,0.071,0.031,0.07,0-0.002
					c0.015,0.036,0.028,0.072,0.041,0.107c0.056,0.145,0.099,0.293,0.136,0.442c0.02,0.076,0.035,0.152,0.049,0.229
					c0.007,0.025,0.041,0.267,0.021,0.119C26.448,17.954,26.455,18.114,26.456,18.274c0.003,0.353,0.287,0.65,0.644,0.652
					c0.35,0.002,0.653-0.29,0.651-0.643c-0.017-2.16-1.467-4.074-3.547-4.663c-2.092-0.591-4.354,0.374-5.455,2.224
					c-1.113,1.871-0.754,4.318,0.759,5.853c1.527,1.547,3.984,1.83,5.852,0.752c1.473-0.85,2.378-2.475,2.392-4.166
					C27.757,17.448,26.463,17.441,26.456,18.274z"/>
			</g>
		</g>
		<g>
			<g>
				<path stroke="#000000" stroke-miterlimit="10" d="M27.725,22.946c0.379,0.244,0.73,0.549,1.082,0.963
					c0.004,0.005,0.131,0.166,0.051,0.063c0.039,0.05,0.074,0.1,0.11,0.151c0.072,0.103,0.14,0.208,0.204,0.315
					s0.124,0.219,0.18,0.33c0.029,0.056,0.056,0.113,0.082,0.17c0.019,0.039,0.034,0.077,0.051,0.116
					c-0.024-0.063-0.023-0.058,0.004,0.016c0.096,0.238,0.164,0.485,0.222,0.733c0.028,0.127,0.05,0.256,0.067,0.383
					c-0.019-0.129,0.009,0.084,0.009,0.09c0.009,0.088,0.013,0.176,0.019,0.264c0.008,0.169,0.004,0.338,0.004,0.506
					c0,0.645,0,1.286,0,1.93c0,0.443,0.02,0.893-0.006,1.334c-0.01,0.189,0.025-0.115-0.011,0.067
					c-0.013,0.058-0.03,0.112-0.048,0.168c-0.057,0.177,0.055-0.106-0.025,0.058c-0.025,0.053-0.056,0.101-0.086,0.147
					c-0.096,0.153,0.082-0.09-0.035,0.049c-0.037,0.043-0.076,0.083-0.117,0.122c-0.016,0.016-0.16,0.124-0.043,0.039
					c-0.063,0.045-0.127,0.082-0.193,0.117c-0.164,0.088,0.125-0.041-0.051,0.021c-0.057,0.021-0.111,0.034-0.168,0.047
					c-0.021,0.006-0.207,0.025-0.063,0.014c-0.032,0.003-0.088,0.004-0.12,0.004c-0.014,0-0.025,0-0.04,0c-0.243,0-0.485,0-0.729,0
					c-1.12,0-2.242,0-3.362,0c-2.418,0-4.837,0-7.256,0c-0.188,0-0.377,0.007-0.565-0.004c-0.189-0.012,0.116,0.025-0.067-0.012
					c-0.057-0.013-0.112-0.029-0.168-0.049c-0.176-0.056,0.106,0.057-0.058-0.023c-0.051-0.025-0.099-0.055-0.147-0.085
					c-0.155-0.099,0.09,0.079-0.049-0.036c-0.043-0.036-0.083-0.077-0.122-0.117c-0.015-0.016-0.124-0.161-0.039-0.043
					c-0.045-0.063-0.082-0.129-0.117-0.195c-0.087-0.164,0.041,0.125-0.022-0.051c-0.02-0.054-0.034-0.111-0.047-0.167
					c-0.005-0.021-0.026-0.207-0.012-0.062c-0.003-0.035-0.004-0.088-0.004-0.123c0-0.043,0-0.086,0-0.129c0-1.098,0-2.194,0-3.293
					c0-0.098,0.002-0.194,0.007-0.293c0.005-0.108,0.015-0.22,0.027-0.328c0.009-0.078,0.01-0.088,0.003-0.029
					c0.009-0.064,0.021-0.128,0.034-0.191c0.039-0.211,0.096-0.418,0.162-0.623c0.084-0.264,0.104-0.303,0.227-0.551
					c0.21-0.424,0.411-0.705,0.675-1.003c0.317-0.356,0.58-0.568,0.912-0.785c0.295-0.192,0.415-0.57,0.231-0.886
					c-0.172-0.293-0.591-0.423-0.886-0.23c-0.936,0.61-1.701,1.464-2.161,2.486c-0.364,0.81-0.525,1.664-0.525,2.549
					c0,1.094,0,2.188,0,3.281c0,1.075,0.779,2.066,1.855,2.247c0.268,0.044,0.528,0.04,0.798,0.04c0.99,0,1.981,0,2.972,0
					c2.543,0,5.086,0,7.629,0c0.259,0,0.52,0,0.777,0c0.832,0,1.568-0.402,2.011-1.109c0.345-0.55,0.317-1.172,0.317-1.789
					c0-0.676,0-1.353,0-2.026c0-0.825-0.004-1.634-0.238-2.435c-0.397-1.357-1.307-2.513-2.492-3.271
					c-0.298-0.19-0.714-0.059-0.884,0.236C27.305,22.378,27.427,22.756,27.725,22.946L27.725,22.946z"/>
			</g>
		</g>
	</g>
</g>
<g id="Layer_2" display="none">
	<g display="inline">
		<g>
			<g>
				<path d="M43.436,39.322c-0.002,0.121-0.008,0.24-0.016,0.359c-0.023,0.383,0.049-0.242-0.016,0.131
					c-0.041,0.229-0.108,0.448-0.184,0.666c-0.125,0.352,0.106-0.223-0.051,0.11c-0.048,0.104-0.104,0.201-0.16,0.3
					c-0.054,0.098-0.117,0.191-0.18,0.284c-0.089,0.119-0.089,0.121-0.002,0.005c-0.049,0.057-0.096,0.114-0.146,0.168
					c-0.147,0.17-0.313,0.318-0.486,0.463c0.229-0.188-0.061,0.035-0.094,0.06c-0.095,0.063-0.19,0.118-0.291,0.173
					c-0.098,0.057-0.199,0.104-0.303,0.154c0.283-0.135-0.057,0.015-0.102,0.029c-0.108,0.039-0.221,0.066-0.331,0.098
					c-0.056,0.014-0.53,0.094-0.229,0.057c-0.367,0.045-0.753,0.025-1.121,0.025c-1.67,0-3.338,0-5.009,0c-5.461,0-10.92,0-16.381,0
					c-2.168,0-4.336,0-6.505,0c-0.588,0-1.177,0-1.765,0c-0.726,0-0.979,0.014-1.686-0.256c0.265,0.101-0.073-0.043-0.106-0.059
					c-0.101-0.052-0.198-0.109-0.294-0.166c-0.096-0.059-0.187-0.123-0.279-0.189c0.235,0.168-0.054-0.058-0.082-0.08
					c-0.168-0.149-0.319-0.315-0.463-0.486c0.19,0.227-0.035-0.061-0.057-0.096c-0.084-0.125-0.157-0.258-0.229-0.391
					c-0.021-0.037-0.171-0.38-0.053-0.091c-0.043-0.104-0.078-0.214-0.112-0.321c-0.035-0.11-0.061-0.224-0.088-0.336
					c-0.009-0.039-0.067-0.416-0.03-0.115c-0.021-0.172-0.026-0.346-0.026-0.517c0-0.497,0-0.993,0-1.491c0-2.396,0-4.791,0-7.187
					c0-2.683,0-5.361,0-8.042c0-0.853,0-1.707,0-2.56c0-0.201,0-0.402,0-0.604c0-0.031,0-0.062,0-0.093
					c0-0.16,0.011-0.319,0.026-0.478c-0.026,0.278,0.023-0.095,0.029-0.127c0.03-0.15,0.076-0.298,0.122-0.444
					c0.011-0.033,0.152-0.377,0.038-0.117c0.045-0.104,0.098-0.204,0.152-0.303c0.053-0.099,0.114-0.194,0.174-0.289
					c0.021-0.032,0.243-0.323,0.063-0.097c0.139-0.175,0.297-0.334,0.462-0.487c0.029-0.027,0.319-0.254,0.081-0.076
					c0.12-0.09,0.248-0.168,0.375-0.247c0.096-0.059,0.198-0.109,0.298-0.16c0.334-0.167-0.254,0.091,0.096-0.042
					c0.216-0.081,0.44-0.136,0.666-0.183c0.375-0.077-0.265,0.018,0.12-0.019c0.119-0.012,0.239-0.013,0.358-0.014
					c0.005,0,0.011,0,0.017,0c0.321,0,0.642,0,0.963,0c1.816,0,3.631,0,5.448,0c5.488,0,10.974,0,16.461,0c2.05,0,4.095,0,6.144,0
					c0.496,0,0.99,0,1.484,0c0.07,0,0.141,0,0.211,0c0.105,0,0.137,0.002,0.24,0.006c0.03,0.001,0.415,0.045,0.137,0.004
					c0.229,0.034,0.451,0.095,0.672,0.166c0.035,0.011,0.377,0.152,0.117,0.038c0.104,0.045,0.203,0.099,0.303,0.152
					c0.101,0.053,0.195,0.114,0.291,0.174c0.061,0.041,0.123,0.083,0.184,0.127c-0.115-0.088-0.115-0.085-0.002,0.007
					c0.173,0.144,0.328,0.306,0.477,0.475c0.241,0.275-0.147-0.212,0.063,0.088c0.067,0.091,0.126,0.187,0.183,0.284
					c0.061,0.097,0.109,0.198,0.159,0.298c0.169,0.334-0.089-0.254,0.044,0.097c0.096,0.252,0.155,0.515,0.203,0.78
					c-0.052-0.296,0.004,0.083,0.006,0.125c0.006,0.065,0.008,0.175,0.008,0.24c0,0.007,0,0.015,0,0.022c0,0.056,0,0.111,0,0.167
					c0,0.637,0,1.275,0,1.913c0,2.52,0,5.039,0,7.558C43.436,32.421,43.436,35.873,43.436,39.322c0,0.707,0.58,1.305,1.289,1.309
					c0.702,0.005,1.307-0.581,1.307-1.289c0-4.078,0-8.158,0-12.232c0-2.25,0-4.499,0-6.747c0-0.425,0.011-0.851-0.008-1.277
					c-0.094-2.365-1.653-4.31-3.83-5.13c-1.205-0.455-2.69-0.306-3.963-0.306c-2.157,0-4.314,0-6.474,0c-5.461,0-10.927,0-16.391,0
					c-1.683,0-3.366,0-5.048,0c-0.344,0-0.689-0.008-1.033,0.014c-2.351,0.159-4.284,1.726-5.049,3.93
					c-0.264,0.758-0.27,1.554-0.27,2.345c0,0.833,0,1.664,0,2.497c0,2.667,0,5.332,0,8.001c0,2.418,0,4.838,0,7.258
					c0,0.523,0,1.048,0,1.57c0,1.862,0.87,3.539,2.349,4.652C7.792,45.025,9.471,45,11.196,45c2.012,0,4.026,0,6.039,0
					c5.492,0,10.981,0,16.473,0c1.854,0,3.709,0,5.565,0c0.348,0,0.697,0,1.047,0c1.916,0,3.56-0.932,4.693-2.438
					c0.684-0.908,1-2.099,1.016-3.222C46.052,37.666,43.456,37.652,43.436,39.322z"/>
			</g>
		</g>
		<g>
			<g>
				<path d="M18.778,10.68c0.002-0.12,0.006-0.239,0.015-0.358c0.026-0.383-0.05,0.241,0.016-0.132
					c0.041-0.227,0.108-0.449,0.183-0.665c0.123-0.352-0.108,0.222,0.049-0.112c0.049-0.102,0.104-0.2,0.16-0.299
					c0.055-0.097,0.119-0.19,0.182-0.283c0.086-0.121,0.086-0.122,0.001-0.004c0.046-0.058,0.095-0.114,0.145-0.171
					c0.148-0.167,0.314-0.318,0.487-0.461c-0.228,0.19,0.062-0.035,0.095-0.058c0.094-0.063,0.192-0.119,0.29-0.175
					c0.097-0.055,0.2-0.104,0.303-0.151c-0.282,0.132,0.056-0.016,0.102-0.032c0.109-0.038,0.221-0.067,0.331-0.095
					c0.054-0.014,0.529-0.094,0.229-0.057c0.933-0.114,1.921-0.026,2.858-0.026c1.211,0,2.422,0,3.633,0c0.092,0,0.183,0,0.272,0
					c0.162,0,0.322,0.011,0.481,0.026c-0.276-0.026,0.096,0.022,0.127,0.029c0.152,0.03,0.3,0.076,0.447,0.123
					c0.031,0.01,0.375,0.152,0.115,0.038c0.104,0.045,0.203,0.099,0.303,0.151c0.101,0.054,0.195,0.115,0.289,0.175
					c0.031,0.02,0.323,0.242,0.098,0.063c0.177,0.139,0.335,0.298,0.486,0.462c0.027,0.029,0.254,0.318,0.074,0.082
					c0.092,0.12,0.172,0.247,0.247,0.375c0.078,0.129,0.146,0.264,0.208,0.4c-0.059-0.147-0.061-0.149-0.005-0.005
					c0.041,0.107,0.071,0.217,0.104,0.328c0.043,0.148,0.07,0.3,0.1,0.453c-0.018-0.153-0.018-0.15-0.002,0.005
					c0.011,0.119,0.013,0.238,0.016,0.358c0.008,0.706,0.57,1.302,1.286,1.308c0.697,0.004,1.317-0.582,1.31-1.289
					c-0.032-2.36-1.449-4.401-3.625-5.288c-1.111-0.453-2.293-0.389-3.465-0.389c-1.327,0-2.65,0-3.976,0
					c-1.398,0-2.729,0.112-3.952,0.893c-1.621,1.036-2.588,2.851-2.614,4.765C16.16,12.339,18.757,12.351,18.778,10.68L18.778,10.68
					z"/>
			</g>
		</g>
	</g>
</g>
</svg>
