<?xml version="1.0" encoding="utf-8"?>
<!-- Generator: Adobe Illustrator 16.0.0, SVG Export Plug-In . SVG Version: 6.00 Build 0)  -->
<!DOCTYPE svg PUBLIC "-//W3C//DTD SVG 1.1//EN" "http://www.w3.org/Graphics/SVG/1.1/DTD/svg11.dtd" [
	<!ENTITY ns_flows "http://ns.adobe.com/Flows/1.0/">
	<!ENTITY ns_extend "http://ns.adobe.com/Extensibility/1.0/">
	<!ENTITY ns_ai "http://ns.adobe.com/AdobeIllustrator/10.0/">
	<!ENTITY ns_graphs "http://ns.adobe.com/Graphs/1.0/">
]>
<svg version="1.1" id="Layer_1" xmlns:x="&ns_extend;" xmlns:i="&ns_ai;" xmlns:graph="&ns_graphs;"
	 xmlns="http://www.w3.org/2000/svg" xmlns:xlink="http://www.w3.org/1999/xlink" xmlns:a="http://ns.adobe.com/AdobeSVGViewerExtensions/3.0/"
	 x="0px" y="0px" width="50px" height="50px" viewBox="0 0 50 50" enable-background="new 0 0 50 50" xml:space="preserve">
<g>
	<path fill="#E4EAF6" d="M25,44.534C14.229,44.534,5.466,35.771,5.466,25C5.466,14.229,14.229,5.466,25,5.466
		S44.533,14.229,44.533,25C44.533,35.771,35.771,44.534,25,44.534z"/>
	<path fill="#C3E678" d="M25,42.19c-9.479,0-17.189-7.712-17.189-17.19S15.521,7.811,25,7.811S42.189,15.521,42.189,25
		S34.479,42.19,25,42.19z"/>
	<path fill="#A5D76E" d="M32.032,37.502c-9.479,0-17.189-7.712-17.189-17.19c0-4.414,1.674-8.443,4.418-11.491
		C12.601,11.19,7.811,17.537,7.811,25c0,9.479,7.711,17.19,17.189,17.19c5.036,0,9.558-2.19,12.703-5.654
		C35.926,37.159,34.019,37.502,32.032,37.502z"/>
	<g>
		<path fill="#E6AF78" d="M29.221,29.541c-0.257-0.073-1.059-0.363-1.06-1.008l-0.006-1.89l-6.294,0.014l0.001,1.89
			c0.001,0.568-0.621,0.863-0.943,0.977l4.099,2.509L29.221,29.541z"/>
		<path fill="#E6AF78" d="M28.161,28.533l-0.005-1.582c-0.827,1.606-2.5,2.707-4.432,2.707c-0.775,0-1.51-0.178-2.165-0.494
			c-0.204,0.183-0.466,0.298-0.641,0.358l4.099,2.51l4.202-2.491C28.964,29.468,28.162,29.178,28.161,28.533z"/>
	</g>
	<path fill="#D29B6E" d="M28.156,26.951l-0.001-0.308l-6.294,0.014l0.001,1.89c0.001,0.261-0.13,0.463-0.302,0.617
		c0.655,0.316,1.389,0.494,2.165,0.494C25.656,29.658,27.329,28.558,28.156,26.951z"/>
	<path fill="#785550" d="M29.688,14.834c-2.381,0.344-5.507-1.895-7.834,0.015c-1.409,0.002-2.305,1.126-2.302,2.624
		c0.002,1.412,0.782,4.215,0.782,4.215l0.001,0.757c-0.003-1.375,0.805-3.688,0.805-3.688c4.04-0.008,7.367,1.146,8.559,1.619
		v-0.073v0.073c0.086,0.034,0.161,0.065,0.225,0.092C30.562,17.737,29.975,15.479,29.688,14.834z"/>
	<path fill="#F0C087" d="M20.336,22.444c0.005,2.925,2.067,5.653,4.684,5.648s4.689-2.593,4.684-5.519l-0.004-2.198
		c-1.192-0.473-4.519-1.627-8.559-1.619C21.141,18.757,20.333,21.069,20.336,22.444z"/>
	<path fill="#E6AF78" d="M22.024,23.121c-0.079-3.798,0.552-3.607,0.552-3.607c1.147-0.265,2.847-0.196,4.704,0.071
		c-1.598-0.429-3.743-0.833-6.14-0.828c0,0-0.808,2.313-0.805,3.687c0.005,2.715,1.782,5.259,4.129,5.607
		C23.448,27.248,22.072,25.408,22.024,23.121z"/>
	<path fill="#EFF2FA" d="M34.402,33.4c-0.002-1.311-0.831-2.709-2.258-3.105l-2.924-0.754l0,0l-4.202,2.491l-4.099-2.51
		c-0.043,0.016-0.083,0.028-0.113,0.037l-2.921,0.764c-1.425,0.402-2.249,1.804-2.246,3.114l0.001,0.844
		c0,0.494,0.458,0.894,1.022,0.893l16.722-0.034c0.563-0.001,1.02-0.401,1.02-0.896L34.402,33.4z"/>
	<g>
		<path fill="#E4EAF6" d="M19.055,35.127v-0.94c0-0.481-0.218-0.94-0.601-1.263l-2.005-1.673c-0.526,0.612-0.811,1.415-0.81,2.187
			l0.001,0.844c0,0.334,0.21,0.625,0.521,0.777c0.13,0.044,0.256,0.069,0.357,0.069L19.055,35.127L19.055,35.127L19.055,35.127z"/>
		<path fill="#E4EAF6" d="M34.404,34.244L34.402,33.4c-0.001-0.673-0.221-1.369-0.628-1.941l-1.804,1.465
			c-0.382,0.322-0.601,0.781-0.601,1.263v0.941h2.179C34.034,35.058,34.405,34.689,34.404,34.244z"/>
	</g>
	<path fill="#694B4B" d="M29.688,14.834c-1.034,0.149-2.208-0.188-3.396-0.462c-1.548-0.356-3.121-0.604-4.438,0.477
		c-0.011,0-0.022,0-0.033,0c-0.163,0.169,0.146,0.646,0.146,0.646s-0.619,0.293-0.879,1.466c-0.143,0.641-0.104,1.328,0.096,1.796
		c1.833,0,3.519,0.239,4.922,0.544c1.673,0.363,2.946,0.819,3.593,1.075c0.086,0.034,0.16,0.065,0.225,0.092
		C30.562,17.737,29.975,15.479,29.688,14.834z"/>
	<path d="M32.341,29.589c-0.005-0.001-0.009-0.002-0.014-0.003l-2.913-0.751c-0.281-0.082-0.499-0.235-0.521-0.304l-0.005-1.611
		c0.006-0.008,0.013-0.015,0.019-0.021c0.988-1.187,1.531-2.723,1.528-4.325l-0.002-1.187c0.988-3.235,0.285-6.035-0.075-6.85
		c-0.001-0.002-0.003-0.005-0.004-0.007c-0.006-0.015-0.014-0.028-0.021-0.042c-0.005-0.009-0.009-0.017-0.014-0.024
		c-0.007-0.012-0.015-0.023-0.022-0.035c-0.006-0.009-0.011-0.018-0.018-0.026c-0.007-0.01-0.015-0.019-0.021-0.027
		c-0.008-0.011-0.016-0.021-0.024-0.029c-0.006-0.008-0.014-0.015-0.02-0.021c-0.01-0.01-0.02-0.02-0.03-0.029
		c-0.007-0.007-0.014-0.012-0.021-0.018c-0.011-0.01-0.021-0.019-0.033-0.027c-0.008-0.007-0.017-0.012-0.025-0.018
		c-0.01-0.008-0.021-0.015-0.032-0.022c-0.011-0.006-0.021-0.012-0.032-0.018c-0.01-0.005-0.019-0.011-0.028-0.016
		c-0.013-0.007-0.026-0.012-0.04-0.018c-0.008-0.004-0.016-0.007-0.023-0.01c-0.015-0.006-0.029-0.011-0.045-0.016
		c-0.008-0.002-0.015-0.005-0.021-0.007c-0.015-0.004-0.029-0.007-0.044-0.01c-0.009-0.002-0.018-0.004-0.026-0.006
		c-0.013-0.002-0.025-0.003-0.039-0.005c-0.011-0.001-0.022-0.003-0.033-0.004c-0.011,0-0.021,0-0.032-0.001
		c-0.015,0-0.028,0-0.042,0c-0.01,0-0.018,0.001-0.027,0.002c-0.016,0.001-0.031,0.002-0.047,0.004
		c-0.003,0.001-0.006,0.001-0.008,0.001c-0.763,0.11-1.686-0.108-2.663-0.341c-1.714-0.407-3.648-0.865-5.33,0.36
		c-1.624,0.136-2.774,1.502-2.771,3.347l0,0l0,0l0,0l0,0c0.003,1.356,0.641,3.788,0.783,4.312l0,0.391c0,0.001,0,0.001,0,0.002l0,0
		l0.001,0.267c0.003,1.584,0.559,3.182,1.524,4.381c0,0.001,0.001,0.001,0.001,0.002l0.001,1.722
		c-0.022,0.066-0.239,0.221-0.519,0.303L17.7,29.614c-0.004,0.002-0.009,0.003-0.014,0.004c-1.828,0.517-2.782,2.313-2.779,3.82
		l0.001,0.844c0.002,0.896,0.788,1.623,1.753,1.623c0.001,0,0.002,0,0.004,0l8.342-0.017c0.006,0.001,0.012,0.001,0.018,0.001h0.001
		c0.006,0,0.012,0,0.018-0.001l8.343-0.017c0.966-0.001,1.751-0.732,1.75-1.629l-0.002-0.844
		C35.132,31.892,34.172,30.099,32.341,29.589z M25.02,31.18l-2.786-1.664c0.221-0.263,0.362-0.584,0.362-0.969l0-0.416
		c0.743,0.454,1.565,0.694,2.418,0.694c0.002,0,0.005,0,0.008,0c0.85-0.001,1.667-0.23,2.406-0.662l0.001,0.372
		c0.001,0.396,0.152,0.725,0.384,0.99L25.02,31.18z M20.285,17.472L20.285,17.472L20.285,17.472
		c-0.002-0.871,0.409-1.889,1.571-1.891c0.005,0,0.011-0.001,0.017-0.001c0.018-0.001,0.037-0.001,0.055-0.003
		c0.009-0.001,0.019-0.003,0.028-0.004c0.014-0.002,0.029-0.004,0.043-0.007c0.011-0.002,0.021-0.005,0.031-0.008
		c0.013-0.003,0.025-0.006,0.038-0.01c0.011-0.003,0.021-0.008,0.033-0.012s0.023-0.008,0.035-0.013
		c0.011-0.005,0.022-0.01,0.034-0.016c0.01-0.005,0.021-0.01,0.031-0.015c0.013-0.007,0.024-0.015,0.037-0.021
		c0.008-0.006,0.017-0.01,0.025-0.016c0.016-0.01,0.03-0.021,0.044-0.033c0.005-0.003,0.009-0.006,0.014-0.009
		c1.167-0.957,2.671-0.601,4.263-0.222c0.852,0.201,1.726,0.409,2.57,0.409c0.01,0,0.019,0,0.027,0
		c0.213,0.76,0.429,2.142,0.199,3.79c-1.23-0.451-4.221-1.369-8.191-1.369c-0.016,0-0.032,0-0.048,0
		c-0.002,0-0.004,0.001-0.006,0.001c-0.017,0-0.034,0.001-0.051,0.002c-0.008,0.001-0.016,0.001-0.023,0.002
		c-0.014,0.002-0.027,0.004-0.042,0.007c-0.01,0.002-0.021,0.003-0.031,0.005c-0.009,0.002-0.019,0.005-0.029,0.008
		c-0.014,0.004-0.028,0.007-0.041,0.011c-0.006,0.002-0.011,0.005-0.017,0.007c-0.017,0.006-0.034,0.012-0.05,0.019
		c-0.004,0.002-0.008,0.004-0.012,0.006c-0.018,0.008-0.035,0.016-0.051,0.025c-0.007,0.004-0.014,0.008-0.021,0.012
		c-0.013,0.008-0.026,0.016-0.039,0.024s-0.025,0.019-0.037,0.027c-0.006,0.005-0.013,0.009-0.019,0.014
		c-0.015,0.013-0.028,0.025-0.042,0.039c-0.003,0.003-0.007,0.006-0.009,0.009c-0.012,0.013-0.024,0.025-0.036,0.039
		c-0.004,0.005-0.008,0.009-0.012,0.014c-0.01,0.011-0.018,0.022-0.026,0.034c-0.006,0.008-0.012,0.016-0.017,0.023
		c-0.006,0.01-0.011,0.019-0.017,0.028c-0.007,0.012-0.014,0.023-0.021,0.036c-0.004,0.007-0.007,0.015-0.011,0.021
		c-0.007,0.015-0.014,0.03-0.021,0.046c-0.001,0.001-0.001,0.003-0.002,0.005c-0.005,0.012-0.025,0.064-0.057,0.146
		C20.332,18.194,20.285,17.785,20.285,17.472z M21.068,22.442l0-0.268c-0.001-0.796,0.337-1.962,0.583-2.682
		c3.604,0.071,6.314,0.94,7.316,1.312l0.001,0.468c0,0.002,0,0.005,0,0.007l0.002,1.297c0.005,2.589-1.805,4.78-3.952,4.784
		c-0.002,0-0.004,0-0.006,0c-1.015,0-1.989-0.516-2.743-1.452C21.509,24.963,21.071,23.7,21.068,22.442z M16.662,34.441
		L16.662,34.441c-0.179,0-0.288-0.104-0.288-0.161l-0.002-0.844c-0.002-0.954,0.584-2.086,1.707-2.406l2.666-0.698l3.542,2.116
		l0.003,1.978L16.662,34.441z M33.384,34.408l-7.628,0.015l-0.003-1.974l3.58-2.122l2.622,0.675
		c1.124,0.316,1.714,1.446,1.716,2.399l0.002,0.845C33.672,34.303,33.563,34.407,33.384,34.408z"/>
	<path d="M49.363,49.902c0.016-0.002,0.031-0.004,0.047-0.008c0.007-0.001,0.014-0.003,0.02-0.004
		c0.017-0.004,0.034-0.008,0.051-0.014c0.004-0.001,0.009-0.003,0.014-0.004c0.018-0.007,0.036-0.013,0.054-0.021
		c0.003-0.001,0.007-0.003,0.01-0.004c0.019-0.008,0.037-0.017,0.056-0.026c0.002-0.001,0.005-0.003,0.008-0.005
		c0.018-0.01,0.036-0.021,0.053-0.032c0.006-0.003,0.01-0.007,0.016-0.011c0.014-0.01,0.028-0.021,0.043-0.031
		c0.019-0.016,0.037-0.032,0.054-0.05c0.018-0.018,0.034-0.035,0.05-0.055c0.01-0.013,0.02-0.027,0.029-0.041
		c0.004-0.006,0.009-0.011,0.013-0.017c0.012-0.018,0.022-0.035,0.032-0.054c0.002-0.003,0.003-0.005,0.004-0.008
		c0.011-0.019,0.02-0.038,0.027-0.058c0.001-0.002,0.002-0.004,0.004-0.007c0.007-0.019,0.014-0.037,0.02-0.057
		c0.002-0.004,0.003-0.007,0.004-0.011c0.006-0.018,0.01-0.036,0.014-0.055c0.001-0.005,0.003-0.01,0.004-0.016
		c0.003-0.018,0.006-0.035,0.008-0.053c0-0.006,0.002-0.012,0.002-0.018C49.999,49.223,50,49.199,50,49.176l-0.015-7.814
		c-0.001-0.403-0.329-0.73-0.732-0.73c-0.001,0-0.001,0-0.002,0c-0.404,0.001-0.731,0.329-0.731,0.733l0.012,6.045l-8.113-8.083
		c3.646-3.916,5.64-8.988,5.63-14.365c-0.011-5.377-2.024-10.442-5.684-14.345l8.083-8.113l0.012,6.045
		c0,0.404,0.328,0.73,0.732,0.73c0,0,0,0,0.001,0c0.405,0,0.731-0.329,0.731-0.733l-0.015-7.813l0,0
		c0-0.024-0.001-0.048-0.004-0.071c-0.001-0.007-0.002-0.012-0.003-0.018c-0.002-0.019-0.004-0.036-0.008-0.054
		c-0.001-0.005-0.002-0.01-0.004-0.015c-0.004-0.019-0.008-0.037-0.014-0.055c-0.001-0.004-0.002-0.007-0.004-0.011
		c-0.006-0.019-0.012-0.038-0.021-0.058c-0.001-0.002-0.002-0.004-0.003-0.006c-0.008-0.02-0.018-0.039-0.027-0.059
		c-0.001-0.002-0.003-0.004-0.004-0.007c-0.01-0.019-0.021-0.036-0.033-0.055c-0.003-0.005-0.008-0.01-0.011-0.015
		c-0.011-0.015-0.021-0.029-0.032-0.043c-0.015-0.019-0.031-0.036-0.049-0.054s-0.035-0.034-0.055-0.049
		c-0.013-0.012-0.027-0.021-0.041-0.031c-0.006-0.004-0.011-0.008-0.017-0.012c-0.017-0.011-0.034-0.021-0.052-0.031
		c-0.003-0.001-0.006-0.004-0.01-0.005c-0.018-0.01-0.036-0.019-0.055-0.026c-0.004-0.001-0.006-0.003-0.01-0.004
		c-0.018-0.008-0.036-0.014-0.055-0.02c-0.004-0.002-0.008-0.004-0.013-0.005c-0.017-0.005-0.034-0.009-0.052-0.013
		c-0.006-0.002-0.012-0.003-0.018-0.005c-0.017-0.003-0.034-0.005-0.051-0.007c-0.007-0.001-0.014-0.003-0.021-0.003
		c-0.02-0.002-0.039-0.003-0.059-0.003C49.185,0.001,49.181,0,49.176,0l0,0h-0.001l-7.813,0.015
		c-0.404,0.001-0.731,0.329-0.73,0.734c0,0.403,0.328,0.73,0.732,0.73c0,0,0,0,0.001,0l6.045-0.011l-8.083,8.113
		c-3.906-3.636-8.963-5.63-14.325-5.63h-0.04c-5.377,0.011-10.442,2.023-14.345,5.684L2.502,1.553l6.045-0.012
		c0.404,0,0.731-0.329,0.731-0.733C9.278,0.403,8.95,0.076,8.546,0.076H8.545L0.731,0.091c-0.024,0-0.048,0.002-0.072,0.004
		c-0.003,0-0.007,0.001-0.01,0.002C0.629,0.099,0.608,0.102,0.588,0.105C0.585,0.106,0.583,0.107,0.58,0.107
		c-0.021,0.005-0.042,0.01-0.062,0.016c-0.001,0-0.003,0.001-0.004,0.001C0.493,0.131,0.472,0.139,0.451,0.147c0,0,0,0-0.001,0
		C0.407,0.166,0.365,0.188,0.325,0.215C0.323,0.216,0.321,0.218,0.319,0.219C0.302,0.231,0.284,0.244,0.268,0.258
		C0.249,0.272,0.23,0.289,0.214,0.307C0.196,0.324,0.18,0.342,0.165,0.361C0.153,0.374,0.144,0.389,0.134,0.402
		C0.13,0.408,0.126,0.413,0.122,0.419C0.11,0.437,0.1,0.455,0.09,0.474C0.088,0.476,0.087,0.478,0.085,0.48
		c-0.01,0.019-0.019,0.038-0.027,0.058C0.058,0.54,0.056,0.543,0.055,0.545c-0.007,0.019-0.014,0.038-0.02,0.057
		C0.034,0.605,0.032,0.609,0.031,0.612c-0.005,0.019-0.01,0.036-0.014,0.054C0.017,0.672,0.015,0.677,0.014,0.683
		C0.01,0.7,0.008,0.718,0.006,0.735c0,0.006-0.002,0.012-0.002,0.019C0.001,0.777,0,0.801,0,0.825l0,0l0.015,7.813
		C0.016,9.043,0.343,9.37,0.747,9.37c0,0,0.001,0,0.001,0C1.153,9.369,1.48,9.04,1.479,8.636L1.469,2.591l8.113,8.083
		c-3.646,3.916-5.64,8.988-5.63,14.366c0.01,5.377,2.024,10.442,5.684,14.345l-8.083,8.113l-0.011-6.045
		c0-0.404-0.329-0.731-0.732-0.731c0,0-0.001,0-0.001,0c-0.404,0.001-0.732,0.329-0.731,0.734l0.015,7.813l0,0
		c0,0.023,0.002,0.048,0.004,0.072c0.001,0.011,0.003,0.021,0.005,0.032c0.002,0.013,0.003,0.025,0.006,0.038
		c0.003,0.013,0.006,0.024,0.009,0.037c0.002,0.011,0.005,0.021,0.008,0.032c0.004,0.013,0.008,0.024,0.013,0.036
		c0.004,0.011,0.007,0.021,0.012,0.031c0.004,0.012,0.01,0.022,0.015,0.033c0.005,0.011,0.01,0.021,0.016,0.032
		c0.006,0.011,0.012,0.021,0.019,0.03c0.006,0.011,0.012,0.021,0.019,0.031c0.008,0.011,0.016,0.021,0.024,0.033
		c0.006,0.008,0.012,0.016,0.019,0.024c0.015,0.019,0.031,0.036,0.049,0.053v0.001c0.001,0.001,0.003,0.002,0.005,0.004
		c0.016,0.016,0.031,0.03,0.049,0.044c0.008,0.007,0.017,0.013,0.025,0.019c0.011,0.008,0.021,0.017,0.032,0.023
		c0.01,0.007,0.021,0.014,0.032,0.02c0.01,0.006,0.02,0.012,0.029,0.018c0.011,0.006,0.022,0.011,0.033,0.016
		s0.021,0.011,0.032,0.015c0.011,0.005,0.021,0.008,0.032,0.012c0.012,0.005,0.023,0.009,0.035,0.013
		c0.011,0.003,0.022,0.006,0.033,0.009c0.012,0.003,0.024,0.006,0.036,0.009c0.013,0.002,0.025,0.004,0.039,0.006
		c0.011,0.001,0.021,0.003,0.032,0.004C0.775,49.999,0.799,50,0.823,50h0c0.001,0,0.001,0,0.002,0l7.813-0.015
		c0.404-0.001,0.731-0.329,0.731-0.734c0-0.403-0.329-0.73-0.732-0.73c0,0-0.001,0-0.001,0l-6.045,0.011l8.083-8.113
		c3.906,3.636,8.963,5.63,14.326,5.63h0.04c5.377-0.01,10.441-2.023,14.345-5.684l8.114,8.083l-6.046,0.012
		c-0.404,0-0.731,0.329-0.731,0.733c0.002,0.404,0.329,0.731,0.733,0.731h0.001l7.813-0.015c0.007,0,0.013-0.001,0.019-0.001
		c0.018-0.001,0.035-0.001,0.053-0.003C49.348,49.904,49.355,49.903,49.363,49.902z M25.037,44.583h-0.038
		c-10.777,0-19.562-8.769-19.582-19.546c-0.01-5.231,2.018-10.152,5.709-13.858c3.691-3.705,8.605-5.752,13.836-5.762h0.038
		c10.777,0,19.562,8.769,19.582,19.546C44.603,35.762,35.834,44.563,25.037,44.583z"/>
	<path d="M37.017,13.756c0.144,0.153,0.339,0.231,0.535,0.231c0.179,0,0.358-0.065,0.5-0.197c0.296-0.277,0.311-0.74,0.034-1.036
		c-0.285-0.304-0.584-0.603-0.891-0.887c-0.296-0.275-0.76-0.259-1.035,0.038c-0.275,0.296-0.258,0.76,0.038,1.035
		C36.479,13.201,36.755,13.476,37.017,13.756z"/>
	<path d="M24.969,8.543c0.011,0,0.021,0,0.032,0c3.191,0,6.286,0.914,8.95,2.645c0.339,0.22,0.793,0.123,1.014-0.216
		c0.22-0.339,0.124-0.793-0.216-1.014c-2.902-1.885-6.272-2.88-9.748-2.88c-0.011,0-0.023,0-0.035,0
		c-4.787,0.009-9.284,1.882-12.663,5.272c-3.379,3.392-5.235,7.896-5.226,12.684c0.008,4.156,1.471,8.204,4.119,11.398
		c0.145,0.175,0.354,0.265,0.564,0.265c0.165,0,0.331-0.055,0.467-0.168c0.311-0.259,0.354-0.721,0.096-1.032
		c-2.432-2.933-3.775-6.649-3.782-10.466c-0.009-4.396,1.695-8.532,4.798-11.646S20.573,8.551,24.969,8.543z"/>
	<path d="M40.004,15.194c-0.221-0.338-0.676-0.433-1.014-0.211s-0.434,0.676-0.211,1.014c1.746,2.667,2.672,5.77,2.678,8.972
		c0.008,4.396-1.695,8.532-4.799,11.646c-3.102,3.114-7.231,4.834-11.627,4.842c-0.01,0-0.02,0-0.031,0
		c-3.805,0-7.516-1.328-10.449-3.741c-0.313-0.257-0.773-0.213-1.031,0.1s-0.212,0.774,0.1,1.031
		c3.195,2.629,7.235,4.076,11.38,4.076c0.011,0,0.022,0,0.033,0c4.787-0.01,9.285-1.882,12.663-5.273
		c3.379-3.392,5.235-7.896,5.226-12.683C42.916,21.479,41.906,18.1,40.004,15.194z"/>
</g>
</svg>
