<svg xmlns="http://www.w3.org/2000/svg" xmlns:xlink="http://www.w3.org/1999/xlink" width="32" height="32" viewBox="0 0 32 32"><defs><linearGradient id="a"><stop offset="0" stop-color="#000092"/><stop offset="1" stop-color="#ff00f3"/></linearGradient><linearGradient id="b" x1="5" x2="25" y1="16" y2="16" gradientUnits="userSpaceOnUse" xlink:href="#a"/></defs><path fill="url(#b)" d="M 16 1 C 14.941134 1 14 1.7559969 14 2.7792969 C 14 2.8549967 14.016924 2.9263774 14.027344 3 L 11.5 3 A 0.50004997 0.50004997 0 0 0 11 3.5 L 11 4 L 5.5 4 A 0.50005 0.50005 0 0 0 5 4.5 L 5 30.5 A 0.50005 0.50005 0 0 0 5.5 31 L 26.5 31 A 0.50005 0.50005 0 0 0 27 30.5 L 27 26.818359 C 27.260244 26.726339 27.49742 26.564303 27.675781 26.332031 C 28.164625 25.689331 28.046358 24.758472 27.408203 24.263672 L 27 23.947266 L 27 11 L 27 4.5 A 0.50005 0.50005 0 0 0 26.5 4 L 21 4 L 21 3.5 A 0.50004997 0.50004997 0 0 0 20.5 3 L 17.972656 3 C 17.983082 2.9263653 18 2.8550263 18 2.7792969 C 18 1.7559969 17.058859 1 16 1 z M 16 2 C 16.597981 2 17 2.3896969 17 2.7792969 C 17 2.8762969 16.977264 2.9685406 16.933594 3.0566406 C 16.911954 3.1006406 16.884583 3.1436469 16.851562 3.1855469 A 0.50005 0.50005 0 0 0 17.316406 4 L 20 4 L 20 7 L 12 7 L 12 4 L 14.681641 4 A 0.50005 0.50005 0 0 0 15.148438 3.1855469 C 15.115457 3.1435469 15.088166 3.1005406 15.066406 3.0566406 C 15.022765 2.9686406 15 2.8766969 15 2.7792969 C 15 2.3896969 15.402006 2 16 2 z M 6 5 L 11 5 L 11 6 L 7.5 6 A 0.50005 0.50005 0 0 0 7 6.5 L 7 28.5 A 0.50005 0.50005 0 0 0 7.5 29 L 21.373047 29 A 0.50005 0.50005 0 0 0 21.433594 28.996094 A 0.50005 0.50005 0 0 0 21.853516 28.855469 L 24.761719 25.945312 L 25.613281 26.605469 C 25.732597 26.697957 25.864834 26.760952 26 26.810547 L 26 30 L 6 30 L 6 5 z M 21 5 L 26 5 L 26 11 L 26 23.171875 L 25.623047 22.878906 L 25 22.396484 L 25 11.228516 L 25 6.5 A 0.50005 0.50005 0 0 0 24.5 6 L 21 6 L 21 5 z M 8 7 L 11 7 L 11 7.5 A 0.50004997 0.50004997 0 0 0 11.5 8 L 20.5 8 A 0.50004997 0.50004997 0 0 0 21 7.5 L 21 7 L 24 7 L 24 11.228516 L 24 21.621094 L 23.310547 21.087891 A 0.50005006 0.50005006 0 0 0 23.21875 20.390625 L 21.861328 19.335938 C 22.307956 17.459047 21.658339 15.397525 20.039062 14.142578 C 17.851857 12.447378 14.712116 12.848769 13.042969 15.042969 C 11.373827 17.237169 11.799122 20.406462 13.986328 22.101562 C 15.621285 23.368661 17.788321 23.460818 19.476562 22.511719 L 20.806641 23.544922 A 0.50005006 0.50005006 0 0 0 21.511719 23.449219 L 21.523438 23.433594 L 23.542969 25 L 21.5 25 A 0.50005 0.50005 0 0 0 21 25.5 L 21 28 L 8 28 L 8 7 z M 10.5 9 C 9.6777036 9 9 9.6776 9 10.5 C 9 11.3224 9.6776435 12 10.5 12 C 11.322351 12 12 11.3224 12 10.5 C 12 9.6776 11.322291 9 10.5 9 z M 14.441406 9 A 0.50005 0.50005 0 0 0 14.492188 10 L 22.492188 10 A 0.50005 0.50005 0 1 0 22.492188 9 L 14.492188 9 A 0.50005 0.50005 0 0 0 14.441406 9 z M 10.5 10 C 10.785709 10 11 10.2142 11 10.5 C 11 10.7857 10.785649 11 10.5 11 C 10.214337 11 10 10.7857 10 10.5 C 10 10.2142 10.214276 10 10.5 10 z M 14.449219 11 A 0.50004997 0.50004997 0 0 0 14.5 12 L 18.5 12 A 0.50004997 0.50004997 0 1 0 18.5 11 L 14.5 11 A 0.50004997 0.50004997 0 0 0 14.449219 11 z M 10.5 14 C 9.6777036 14 9 14.6776 9 15.5 C 9 16.3224 9.6776435 17 10.5 17 C 11.322351 17 12 16.3224 12 15.5 C 12 14.6776 11.322291 14 10.5 14 z M 17.240234 14.099609 C 18.008405 14.150023 18.772743 14.425325 19.433594 14.9375 C 21.195869 16.3033 21.535534 18.826091 20.195312 20.587891 C 19.18084 21.921497 17.501303 22.424003 15.980469 22 L 16.5 22 A 0.50004997 0.50004997 0 1 0 16.5 21 L 14.5 21 A 0.50004997 0.50004997 0 0 0 14.306641 21.035156 C 12.811665 19.627533 12.572193 17.312398 13.832031 15.65625 C 14.669664 14.555063 15.959951 14.015587 17.240234 14.099609 z M 10.5 15 C 10.785709 15 11 15.2142 11 15.5 C 11 15.7857 10.785649 16 10.5 16 C 10.214337 16 10 15.7857 10 15.5 C 10 15.2142 10.214276 15 10.5 15 z M 14.599609 16 A 0.50005 0.50005 0 0 0 14.650391 17 L 20 17 A 0.50005 0.50005 0 1 0 20 16 L 14.650391 16 A 0.50005 0.50005 0 0 0 14.599609 16 z M 10.5 19 C 9.6776435 19 9 19.6777 9 20.5 C 9 21.3224 9.6776435 22 10.5 22 C 11.322351 22 12 21.3224 12 20.5 C 12 19.6777 11.322351 19 10.5 19 z M 14.441406 19 A 0.50005 0.50005 0 0 0 14.492188 20 L 19.304688 20 A 0.50005 0.50005 0 1 0 19.304688 19 L 14.492188 19 A 0.50005 0.50005 0 0 0 14.441406 19 z M 10.5 20 C 10.785649 20 11 20.2144 11 20.5 C 11 20.7857 10.785649 21 10.5 21 C 10.214337 21 10 20.7857 10 20.5 C 10 20.2144 10.214337 20 10.5 20 z M 21.513672 20.335938 L 22.214844 20.878906 L 21.021484 22.443359 L 20.328125 21.90625 C 20.565082 21.696016 20.785245 21.460989 20.984375 21.199219 C 21.193019 20.924944 21.369872 20.635881 21.513672 20.335938 z M 22.705078 21.880859 L 23.441406 22.451172 L 24.291016 23.109375 L 25.009766 23.667969 L 25.623047 24.140625 L 26.796875 25.050781 C 27.007866 25.214381 27.0451 25.504756 26.880859 25.722656 C 26.712307 25.940256 26.437409 25.977653 26.226562 25.814453 L 22.128906 22.638672 L 22.705078 21.880859 z M 10.5 24 C 9.6776435 24 9 24.6777 9 25.5 C 9 26.3224 9.6776435 27 10.5 27 C 11.322351 27 12 26.3224 12 25.5 C 12 24.6777 11.322351 24 10.5 24 z M 14.449219 24 A 0.50004997 0.50004997 0 0 0 14.5 25 L 19.5 25 A 0.50004997 0.50004997 0 1 0 19.5 24 L 14.5 24 A 0.50004997 0.50004997 0 0 0 14.449219 24 z M 10.5 25 C 10.785649 25 11 25.2144 11 25.5 C 11 25.7857 10.785649 26 10.5 26 C 10.214337 26 10 25.7857 10 25.5 C 10 25.2144 10.214337 25 10.5 25 z M 14.449219 26 A 0.50004997 0.50004997 0 0 0 14.5 27 L 17.5 27 A 0.50004997 0.50004997 0 1 0 17.5 26 L 14.5 26 A 0.50004997 0.50004997 0 0 0 14.449219 26 z M 22 26 L 23.292969 26 L 22 27.292969 L 22 26 z " color="#000" font-family="sans-serif" font-weight="400" overflow="visible" style="line-height:normal;text-indent:0;text-align:start;text-decoration-line:none;text-decoration-style:solid;text-decoration-color:#000;text-transform:none;block-progression:tb;isolation:auto;mix-blend-mode:normal"/></svg>